<?xml version="1.0" encoding="UTF-8" standalone="no"?>
<!DOCTYPE svg PUBLIC "-//W3C//DTD SVG 1.1//EN"
 "http://www.w3.org/Graphics/SVG/1.1/DTD/svg11.dtd">
<!-- Generated by graphviz version 2.40.1 (20161225.0304)
 -->
<!-- Title: flowchart Pages: 1 -->
<svg width="474pt" height="1191pt"
 viewBox="0.00 0.00 473.50 1191.40" xmlns="http://www.w3.org/2000/svg" xmlns:xlink="http://www.w3.org/1999/xlink">
<g id="graph0" class="graph" transform="scale(1 1) rotate(0) translate(4 1187.4)">
<title>flowchart</title>
<polygon fill="#ffffff" stroke="transparent" points="-4,4 -4,-1187.4 469.5,-1187.4 469.5,4 -4,4"/>
<!-- p0 -->
<g id="node1" class="node">
<title>p0</title>
<ellipse fill="#000000" stroke="#000000" cx="334.5" cy="-1164.8" rx="3.6" ry="3.6"/>
<text text-anchor="middle" x="279.4" y="-1172.2" font-family="Times,serif" font-size="14.00" fill="#000000">Channel.fromPath</text>
</g>
<!-- p3 -->
<g id="node2" class="node">
<title>p3</title>
<ellipse fill="none" stroke="#000000" cx="334.5" cy="-1106.6" rx="3.5" ry="3.5"/>
<text text-anchor="middle" x="320" y="-1113.9" font-family="Times,serif" font-size="14.00" fill="#000000">into</text>
</g>
<!-- p0&#45;&gt;p3 -->
<g id="edge1" class="edge">
<title>p0&#45;&gt;p3</title>
<path fill="none" stroke="#000000" d="M334.5,-1160.9813C334.5,-1152.9323 334.5,-1133.8754 334.5,-1120.607"/>
<polygon fill="#000000" stroke="#000000" points="338.0001,-1120.2077 334.5,-1110.2077 331.0001,-1120.2077 338.0001,-1120.2077"/>
<text text-anchor="middle" x="367.5" y="-1132" font-family="Times,serif" font-size="14.00" fill="#000000">oldGenome</text>
</g>
<!-- p6 -->
<g id="node7" class="node">
<title>p6</title>
<ellipse fill="none" stroke="#000000" cx="259.5" cy="-1034" rx="87.1846" ry="18"/>
<text text-anchor="middle" x="259.5" y="-1030.3" font-family="Times,serif" font-size="14.00" fill="#000000">convertFAto2bit_old</text>
</g>
<!-- p3&#45;&gt;p6 -->
<g id="edge4" class="edge">
<title>p3&#45;&gt;p6</title>
<path fill="none" stroke="#000000" d="M330.7192,-1105.6714C322.2437,-1103.4253 301.4544,-1096.9811 288.5,-1085 281.4371,-1078.4678 275.6383,-1069.8131 271.1322,-1061.4915"/>
<polygon fill="#000000" stroke="#000000" points="274.1821,-1059.7641 266.5955,-1052.3685 267.9143,-1062.881 274.1821,-1059.7641"/>
<text text-anchor="middle" x="328.5" y="-1073.8" font-family="Times,serif" font-size="14.00" fill="#000000">oldGenome_1</text>
</g>
<!-- p17 -->
<g id="node8" class="node">
<title>p17</title>
<ellipse fill="none" stroke="#000000" cx="379.5" cy="-947" rx="83.3857" ry="18"/>
<text text-anchor="middle" x="379.5" y="-943.3" font-family="Times,serif" font-size="14.00" fill="#000000">calculateChromInfo</text>
</g>
<!-- p3&#45;&gt;p17 -->
<g id="edge5" class="edge">
<title>p3&#45;&gt;p17</title>
<path fill="none" stroke="#000000" d="M338.062,-1105.5315C345.2544,-1103.1651 361.4272,-1096.741 368.5,-1085 388.7132,-1051.4458 387.6473,-1004.6807 384.2042,-975.127"/>
<polygon fill="#000000" stroke="#000000" points="387.6548,-974.5232 382.8632,-965.0739 380.7162,-975.4489 387.6548,-974.5232"/>
<text text-anchor="middle" x="425.5" y="-1030.3" font-family="Times,serif" font-size="14.00" fill="#000000">oldGenome_2</text>
</g>
<!-- p1 -->
<g id="node3" class="node">
<title>p1</title>
<ellipse fill="#000000" stroke="#000000" cx="111.5" cy="-1106.6" rx="3.6" ry="3.6"/>
<text text-anchor="middle" x="56.4" y="-1114" font-family="Times,serif" font-size="14.00" fill="#000000">Channel.fromPath</text>
</g>
<!-- p4 -->
<g id="node4" class="node">
<title>p4</title>
<ellipse fill="none" stroke="#000000" cx="111.5" cy="-1034" rx="3.5" ry="3.5"/>
<text text-anchor="middle" x="97" y="-1041.3" font-family="Times,serif" font-size="14.00" fill="#000000">into</text>
</g>
<!-- p1&#45;&gt;p4 -->
<g id="edge2" class="edge">
<title>p1&#45;&gt;p4</title>
<path fill="none" stroke="#000000" d="M111.5,-1102.6967C111.5,-1092.5576 111.5,-1064.997 111.5,-1048.0256"/>
<polygon fill="#000000" stroke="#000000" points="115.0001,-1047.5754 111.5,-1037.5755 108.0001,-1047.5755 115.0001,-1047.5754"/>
<text text-anchor="middle" x="147" y="-1073.8" font-family="Times,serif" font-size="14.00" fill="#000000">newGenome</text>
</g>
<!-- p4&#45;&gt;p17 -->
<g id="edge6" class="edge">
<title>p4&#45;&gt;p17</title>
<path fill="none" stroke="#000000" d="M113.83,-1031.0855C121.1184,-1022.1931 144.551,-995.2698 170.5,-983 171.2879,-982.6275 244.3268,-970.09 303.8327,-959.9152"/>
<polygon fill="#000000" stroke="#000000" points="304.7405,-963.3109 314.0077,-958.1758 303.5609,-956.4109 304.7405,-963.3109"/>
<text text-anchor="middle" x="213" y="-986.8" font-family="Times,serif" font-size="14.00" fill="#000000">newGenome_1</text>
</g>
<!-- p5 -->
<g id="node9" class="node">
<title>p5</title>
<ellipse fill="none" stroke="#000000" cx="57.5" cy="-947" rx="3.5" ry="3.5"/>
<text text-anchor="middle" x="27" y="-954.3" font-family="Times,serif" font-size="14.00" fill="#000000">splitFasta</text>
</g>
<!-- p4&#45;&gt;p5 -->
<g id="edge7" class="edge">
<title>p4&#45;&gt;p5</title>
<path fill="none" stroke="#000000" d="M108.0618,-1033.2938C96.9637,-1030.8072 62.031,-1021.3164 48.5,-998 41.5333,-985.9952 46.2416,-969.9231 51.0776,-959.0545"/>
<polygon fill="#000000" stroke="#000000" points="54.2685,-960.5011 55.6794,-950.0006 48.0283,-957.3293 54.2685,-960.5011"/>
<text text-anchor="middle" x="91" y="-986.8" font-family="Times,serif" font-size="14.00" fill="#000000">newGenome_2</text>
</g>
<!-- p2 -->
<g id="node5" class="node">
<title>p2</title>
<ellipse fill="#000000" stroke="#000000" cx="160.5" cy="-192" rx="3.6" ry="3.6"/>
<text text-anchor="middle" x="105.4" y="-199.4" font-family="Times,serif" font-size="14.00" fill="#000000">Channel.fromPath</text>
</g>
<!-- p20 -->
<g id="node6" class="node">
<title>p20</title>
<ellipse fill="none" stroke="#000000" cx="191.5" cy="-105" rx="58.4896" ry="18"/>
<text text-anchor="middle" x="191.5" y="-101.3" font-family="Times,serif" font-size="14.00" fill="#000000">ucsc_liftover</text>
</g>
<!-- p2&#45;&gt;p20 -->
<g id="edge3" class="edge">
<title>p2&#45;&gt;p20</title>
<path fill="none" stroke="#000000" d="M161.832,-188.2617C165.2182,-178.7586 174.4016,-152.9857 181.6628,-132.6076"/>
<polygon fill="#000000" stroke="#000000" points="184.9795,-133.7268 185.0391,-123.1322 178.3856,-131.3772 184.9795,-133.7268"/>
<text text-anchor="middle" x="198" y="-144.8" font-family="Times,serif" font-size="14.00" fill="#000000">gffFile</text>
</g>
<!-- p21 -->
<g id="node22" class="node">
<title>p21</title>
<ellipse fill="none" stroke="#000000" cx="191.5" cy="-18" rx="39.7935" ry="18"/>
<text text-anchor="middle" x="191.5" y="-14.3" font-family="Times,serif" font-size="14.00" fill="#000000">sort_gff</text>
</g>
<!-- p20&#45;&gt;p21 -->
<g id="edge25" class="edge">
<title>p20&#45;&gt;p21</title>
<path fill="none" stroke="#000000" d="M191.5,-86.9735C191.5,-75.1918 191.5,-59.5607 191.5,-46.1581"/>
<polygon fill="#000000" stroke="#000000" points="195.0001,-46.0033 191.5,-36.0034 188.0001,-46.0034 195.0001,-46.0033"/>
<text text-anchor="middle" x="234" y="-57.8" font-family="Times,serif" font-size="14.00" fill="#000000">ucsc_lifted_gff</text>
</g>
<!-- p7 -->
<g id="node11" class="node">
<title>p7</title>
<ellipse fill="none" stroke="#000000" cx="260.5" cy="-947" rx="3.5" ry="3.5"/>
<text text-anchor="middle" x="246" y="-954.3" font-family="Times,serif" font-size="14.00" fill="#000000">into</text>
</g>
<!-- p6&#45;&gt;p7 -->
<g id="edge9" class="edge">
<title>p6&#45;&gt;p7</title>
<path fill="none" stroke="#000000" d="M259.7072,-1015.9735C259.8967,-999.4868 260.1728,-975.4625 260.3442,-960.5548"/>
<polygon fill="#000000" stroke="#000000" points="263.844,-960.5816 260.4593,-950.542 256.8445,-960.5011 263.844,-960.5816"/>
<text text-anchor="middle" x="283" y="-986.8" font-family="Times,serif" font-size="14.00" fill="#000000">old_2bit</text>
</g>
<!-- p18 -->
<g id="node20" class="node">
<title>p18</title>
<ellipse fill="none" stroke="#000000" cx="379.5" cy="-279" rx="43.5923" ry="18"/>
<text text-anchor="middle" x="379.5" y="-275.3" font-family="Times,serif" font-size="14.00" fill="#000000">chainNet</text>
</g>
<!-- p17&#45;&gt;p18 -->
<g id="edge22" class="edge">
<title>p17&#45;&gt;p18</title>
<path fill="none" stroke="#000000" d="M379.5,-928.6694C379.5,-911.0629 379.5,-883.7135 379.5,-860 379.5,-860 379.5,-860 379.5,-366 379.5,-346.5475 379.5,-324.6484 379.5,-307.6877"/>
<polygon fill="#000000" stroke="#000000" points="383.0001,-307.3305 379.5,-297.3306 376.0001,-307.3306 383.0001,-307.3305"/>
<text text-anchor="middle" x="412" y="-580.8" font-family="Times,serif" font-size="14.00" fill="#000000">chromInfos</text>
</g>
<!-- p9 -->
<g id="node10" class="node">
<title>p9</title>
<ellipse fill="none" stroke="#000000" cx="165.5" cy="-860" rx="3.5" ry="3.5"/>
<text text-anchor="middle" x="137.5" y="-867.3" font-family="Times,serif" font-size="14.00" fill="#000000">combine</text>
</g>
<!-- p5&#45;&gt;p9 -->
<g id="edge8" class="edge">
<title>p5&#45;&gt;p9</title>
<path fill="none" stroke="#000000" d="M60.2004,-944.0393C67.7224,-935.8755 89.7285,-912.5534 110.5,-896 124.5677,-884.789 142.1631,-873.7356 153.6087,-866.896"/>
<polygon fill="#000000" stroke="#000000" points="155.5191,-869.8334 162.3822,-861.762 151.9836,-863.7918 155.5191,-869.8334"/>
<text text-anchor="middle" x="145.5" y="-899.8" font-family="Times,serif" font-size="14.00" fill="#000000">fastaChunks</text>
</g>
<!-- p10 -->
<g id="node13" class="node">
<title>p10</title>
<ellipse fill="none" stroke="#000000" cx="239.5" cy="-787.5" rx="3.5" ry="3.5"/>
<text text-anchor="middle" x="211.5" y="-794.8" font-family="Times,serif" font-size="14.00" fill="#000000">combine</text>
</g>
<!-- p9&#45;&gt;p10 -->
<g id="edge13" class="edge">
<title>p9&#45;&gt;p10</title>
<path fill="none" stroke="#000000" d="M167.5153,-856.7867C169.9205,-853.0591 174.1642,-846.8104 178.5,-842 194.4051,-824.3538 215.5703,-806.4984 228.3299,-796.2418"/>
<polygon fill="#000000" stroke="#000000" points="230.8179,-798.737 236.4998,-789.7946 226.4815,-793.242 230.8179,-798.737"/>
</g>
<!-- p7&#45;&gt;p9 -->
<g id="edge10" class="edge">
<title>p7&#45;&gt;p9</title>
<path fill="none" stroke="#000000" d="M257.1354,-945.8666C246.8094,-942.2491 215.0869,-930.0854 195.5,-911 184.2514,-900.0394 175.7383,-883.98 170.7055,-872.8215"/>
<polygon fill="#000000" stroke="#000000" points="173.8447,-871.2567 166.7517,-863.3865 167.3886,-873.9621 173.8447,-871.2567"/>
<text text-anchor="middle" x="226" y="-899.8" font-family="Times,serif" font-size="14.00" fill="#000000">old_2bit_1</text>
</g>
<!-- p8 -->
<g id="node12" class="node">
<title>p8</title>
<ellipse fill="none" stroke="#000000" cx="260.5" cy="-860" rx="73.387" ry="18"/>
<text text-anchor="middle" x="260.5" y="-856.3" font-family="Times,serif" font-size="14.00" fill="#000000">constructOocFile</text>
</g>
<!-- p7&#45;&gt;p8 -->
<g id="edge11" class="edge">
<title>p7&#45;&gt;p8</title>
<path fill="none" stroke="#000000" d="M260.5,-943.2617C260.5,-933.845 260.5,-908.453 260.5,-888.1647"/>
<polygon fill="#000000" stroke="#000000" points="264.0001,-888.1321 260.5,-878.1322 257.0001,-888.1322 264.0001,-888.1321"/>
<text text-anchor="middle" x="291" y="-899.8" font-family="Times,serif" font-size="14.00" fill="#000000">old_2bit_2</text>
</g>
<!-- p8&#45;&gt;p10 -->
<g id="edge12" class="edge">
<title>p8&#45;&gt;p10</title>
<path fill="none" stroke="#000000" d="M255.2008,-841.7052C251.4854,-828.8782 246.6077,-812.0385 243.2812,-800.5542"/>
<polygon fill="#000000" stroke="#000000" points="246.634,-799.5491 240.49,-790.9177 239.9104,-801.4967 246.634,-799.5491"/>
<text text-anchor="middle" x="260" y="-812.8" font-family="Times,serif" font-size="14.00" fill="#000000">ooc</text>
</g>
<!-- p11 -->
<g id="node14" class="node">
<title>p11</title>
<ellipse fill="none" stroke="#000000" cx="239.5" cy="-715" rx="46.5926" ry="18"/>
<text text-anchor="middle" x="239.5" y="-711.3" font-family="Times,serif" font-size="14.00" fill="#000000">blat_align</text>
</g>
<!-- p10&#45;&gt;p11 -->
<g id="edge14" class="edge">
<title>p10&#45;&gt;p11</title>
<path fill="none" stroke="#000000" d="M239.5,-783.6021C239.5,-776.0027 239.5,-758.603 239.5,-743.2295"/>
<polygon fill="#000000" stroke="#000000" points="243.0001,-743.0553 239.5,-733.0553 236.0001,-743.0553 243.0001,-743.0553"/>
<text text-anchor="middle" x="266.5" y="-754.8" font-family="Times,serif" font-size="14.00" fill="#000000">blatCmds</text>
</g>
<!-- p12 -->
<g id="node15" class="node">
<title>p12</title>
<ellipse fill="none" stroke="#000000" cx="239.5" cy="-628" rx="43.5923" ry="18"/>
<text text-anchor="middle" x="239.5" y="-624.3" font-family="Times,serif" font-size="14.00" fill="#000000">axtChain</text>
</g>
<!-- p11&#45;&gt;p12 -->
<g id="edge15" class="edge">
<title>p11&#45;&gt;p12</title>
<path fill="none" stroke="#000000" d="M239.5,-696.9735C239.5,-685.1918 239.5,-669.5607 239.5,-656.1581"/>
<polygon fill="#000000" stroke="#000000" points="243.0001,-656.0033 239.5,-646.0034 236.0001,-656.0034 243.0001,-656.0033"/>
<text text-anchor="middle" x="281.5" y="-667.8" font-family="Times,serif" font-size="14.00" fill="#000000">axtChainCmds</text>
</g>
<!-- p13 -->
<g id="node16" class="node">
<title>p13</title>
<ellipse fill="none" stroke="#000000" cx="239.5" cy="-555.5" rx="3.5" ry="3.5"/>
<text text-anchor="middle" x="217" y="-562.8" font-family="Times,serif" font-size="14.00" fill="#000000">collect</text>
</g>
<!-- p12&#45;&gt;p13 -->
<g id="edge16" class="edge">
<title>p12&#45;&gt;p13</title>
<path fill="none" stroke="#000000" d="M239.5,-609.7052C239.5,-597.1364 239.5,-580.7149 239.5,-569.2543"/>
<polygon fill="#000000" stroke="#000000" points="243.0001,-569.1824 239.5,-559.1824 236.0001,-569.1825 243.0001,-569.1824"/>
<text text-anchor="middle" x="257.5" y="-580.8" font-family="Times,serif" font-size="14.00" fill="#000000">chains</text>
</g>
<!-- p14 -->
<g id="node17" class="node">
<title>p14</title>
<ellipse fill="none" stroke="#000000" cx="239.5" cy="-497" rx="53.8905" ry="18"/>
<text text-anchor="middle" x="239.5" y="-493.3" font-family="Times,serif" font-size="14.00" fill="#000000">chainMerge</text>
</g>
<!-- p13&#45;&gt;p14 -->
<g id="edge17" class="edge">
<title>p13&#45;&gt;p14</title>
<path fill="none" stroke="#000000" d="M239.5,-551.6617C239.5,-546.1711 239.5,-535.5846 239.5,-525.179"/>
<polygon fill="#000000" stroke="#000000" points="243.0001,-525.0292 239.5,-515.0293 236.0001,-525.0293 243.0001,-525.0292"/>
</g>
<!-- p15 -->
<g id="node18" class="node">
<title>p15</title>
<ellipse fill="none" stroke="#000000" cx="239.5" cy="-424.5" rx="3.5" ry="3.5"/>
<text text-anchor="middle" x="206" y="-431.8" font-family="Times,serif" font-size="14.00" fill="#000000">collectFile</text>
</g>
<!-- p14&#45;&gt;p15 -->
<g id="edge18" class="edge">
<title>p14&#45;&gt;p15</title>
<path fill="none" stroke="#000000" d="M239.5,-478.7052C239.5,-466.1364 239.5,-449.7149 239.5,-438.2543"/>
<polygon fill="#000000" stroke="#000000" points="243.0001,-438.1824 239.5,-428.1824 236.0001,-438.1825 243.0001,-438.1824"/>
<text text-anchor="middle" x="291.5" y="-449.8" font-family="Times,serif" font-size="14.00" fill="#000000">sortMergedChains</text>
</g>
<!-- p16 -->
<g id="node19" class="node">
<title>p16</title>
<ellipse fill="none" stroke="#000000" cx="239.5" cy="-366" rx="45.4919" ry="18"/>
<text text-anchor="middle" x="239.5" y="-362.3" font-family="Times,serif" font-size="14.00" fill="#000000">chainSort</text>
</g>
<!-- p15&#45;&gt;p16 -->
<g id="edge19" class="edge">
<title>p15&#45;&gt;p16</title>
<path fill="none" stroke="#000000" d="M239.5,-420.6617C239.5,-415.1711 239.5,-404.5846 239.5,-394.179"/>
<polygon fill="#000000" stroke="#000000" points="243.0001,-394.0292 239.5,-384.0293 236.0001,-394.0293 243.0001,-394.0292"/>
</g>
<!-- p16&#45;&gt;p18 -->
<g id="edge20" class="edge">
<title>p16&#45;&gt;p18</title>
<path fill="none" stroke="#000000" d="M245.6053,-347.6675C250.0927,-336.7796 257.2157,-323.4855 267.5,-315 268.9216,-313.8271 304.362,-302.5271 334.9983,-292.8957"/>
<polygon fill="#000000" stroke="#000000" points="336.2341,-296.1763 344.7271,-289.8423 334.1379,-289.4975 336.2341,-296.1763"/>
<text text-anchor="middle" x="316.5" y="-318.8" font-family="Times,serif" font-size="14.00" fill="#000000">allSortedChain_1</text>
</g>
<!-- p19 -->
<g id="node21" class="node">
<title>p19</title>
<ellipse fill="none" stroke="#000000" cx="267.5" cy="-192" rx="85.5853" ry="18"/>
<text text-anchor="middle" x="267.5" y="-188.3" font-family="Times,serif" font-size="14.00" fill="#000000">produceLiftOverFile</text>
</g>
<!-- p16&#45;&gt;p19 -->
<g id="edge21" class="edge">
<title>p16&#45;&gt;p19</title>
<path fill="none" stroke="#000000" d="M233.7173,-347.8649C227.8517,-326.6931 220.6664,-290.7795 228.5,-261 232.4718,-245.9011 240.5838,-230.6323 248.3859,-218.31"/>
<polygon fill="#000000" stroke="#000000" points="251.3494,-220.1739 253.9486,-209.9029 245.5116,-216.3112 251.3494,-220.1739"/>
<text text-anchor="middle" x="277.5" y="-275.3" font-family="Times,serif" font-size="14.00" fill="#000000">allSortedChain_2</text>
</g>
<!-- p18&#45;&gt;p19 -->
<g id="edge23" class="edge">
<title>p18&#45;&gt;p19</title>
<path fill="none" stroke="#000000" d="M358.9575,-263.0429C341.9382,-249.8225 317.4963,-230.8364 298.1612,-215.8172"/>
<polygon fill="#000000" stroke="#000000" points="300.2683,-213.0221 290.2239,-209.6516 295.9741,-218.5502 300.2683,-213.0221"/>
<text text-anchor="middle" x="349" y="-231.8" font-family="Times,serif" font-size="14.00" fill="#000000">netFile</text>
</g>
<!-- p19&#45;&gt;p20 -->
<g id="edge24" class="edge">
<title>p19&#45;&gt;p20</title>
<path fill="none" stroke="#000000" d="M251.7528,-173.9735C240.7038,-161.3254 225.7796,-144.2411 213.5488,-130.2401"/>
<polygon fill="#000000" stroke="#000000" points="215.9233,-127.6382 206.7085,-122.4097 210.6515,-132.2435 215.9233,-127.6382"/>
<text text-anchor="middle" x="274" y="-144.8" font-family="Times,serif" font-size="14.00" fill="#000000">liftOverFile_2</text>
</g>
</g>
</svg>
