<?xml version="1.0" encoding="UTF-8" standalone="no"?>
<!DOCTYPE svg PUBLIC "-//W3C//DTD SVG 1.1//EN"
 "http://www.w3.org/Graphics/SVG/1.1/DTD/svg11.dtd">
<!-- Generated by graphviz version 2.40.1 (20161225.0304)
 -->
<!-- Title: flowchart Pages: 1 -->
<svg width="1382pt" height="1318pt"
 viewBox="0.00 0.00 1382.49 1317.80" xmlns="http://www.w3.org/2000/svg" xmlns:xlink="http://www.w3.org/1999/xlink">
<g id="graph0" class="graph" transform="scale(1 1) rotate(0) translate(4 1313.8)">
<title>flowchart</title>
<polygon fill="#ffffff" stroke="transparent" points="-4,4 -4,-1313.8 1378.4937,-1313.8 1378.4937,4 -4,4"/>
<!-- p0 -->
<g id="node1" class="node">
<title>p0</title>
<ellipse fill="#000000" stroke="#000000" cx="272.4937" cy="-696.6" rx="3.6" ry="3.6"/>
<text text-anchor="middle" x="218.8937" y="-704" font-family="Times,serif" font-size="14.00" fill="#000000">Channel.fromPath</text>
</g>
<!-- p5 -->
<g id="node2" class="node">
<title>p5</title>
<ellipse fill="none" stroke="#000000" cx="272.4937" cy="-609.6" rx="3.5" ry="3.5"/>
<text text-anchor="middle" x="257.9937" y="-616.9" font-family="Times,serif" font-size="14.00" fill="#000000">into</text>
</g>
<!-- p0&#45;&gt;p5 -->
<g id="edge1" class="edge">
<title>p0&#45;&gt;p5</title>
<path fill="none" stroke="#000000" d="M272.4937,-692.8617C272.4937,-681.0107 272.4937,-643.8578 272.4937,-623.4184"/>
<polygon fill="#000000" stroke="#000000" points="275.9938,-623.2275 272.4937,-613.2275 268.9938,-623.2276 275.9938,-623.2275"/>
<text text-anchor="middle" x="304.4937" y="-649.4" font-family="Times,serif" font-size="14.00" fill="#000000">oldGenome</text>
</g>
<!-- p26 -->
<g id="node10" class="node">
<title>p26</title>
<ellipse fill="none" stroke="#000000" cx="481.4937" cy="-522.6" rx="81.4863" ry="18"/>
<text text-anchor="middle" x="481.4937" y="-518.9" font-family="Times,serif" font-size="14.00" fill="#000000">calculateChromInfo</text>
</g>
<!-- p5&#45;&gt;p26 -->
<g id="edge7" class="edge">
<title>p5&#45;&gt;p26</title>
<path fill="none" stroke="#000000" d="M274.8588,-606.2247C281.5124,-597.0013 301.4186,-571.2223 324.4937,-558.6 347.1269,-546.2193 373.8363,-538.0867 398.7448,-532.7482"/>
<polygon fill="#000000" stroke="#000000" points="399.4461,-536.1773 408.5552,-530.7666 398.0601,-529.3159 399.4461,-536.1773"/>
<text text-anchor="middle" x="363.4937" y="-562.4" font-family="Times,serif" font-size="14.00" fill="#000000">oldGenome_2</text>
</g>
<!-- p9 -->
<g id="node11" class="node">
<title>p9</title>
<ellipse fill="none" stroke="#000000" cx="118.4937" cy="-522.6" rx="84.485" ry="18"/>
<text text-anchor="middle" x="118.4937" y="-518.9" font-family="Times,serif" font-size="14.00" fill="#000000">convertFAto2bit_old</text>
</g>
<!-- p5&#45;&gt;p9 -->
<g id="edge8" class="edge">
<title>p5&#45;&gt;p9</title>
<path fill="none" stroke="#000000" d="M268.9914,-609.1063C249.8554,-606.3457 158.0525,-592.2739 137.4937,-573.6 130.9301,-567.6382 126.6254,-559.194 123.8056,-550.8885"/>
<polygon fill="#000000" stroke="#000000" points="127.1066,-549.6958 121.0503,-541.0027 120.3636,-551.5752 127.1066,-549.6958"/>
<text text-anchor="middle" x="176.4937" y="-562.4" font-family="Times,serif" font-size="14.00" fill="#000000">oldGenome_1</text>
</g>
<!-- p21 -->
<g id="node12" class="node">
<title>p21</title>
<ellipse fill="none" stroke="#000000" cx="623.4937" cy="-522.6" rx="42.4939" ry="18"/>
<text text-anchor="middle" x="623.4937" y="-518.9" font-family="Times,serif" font-size="14.00" fill="#000000">axtChain</text>
</g>
<!-- p5&#45;&gt;p21 -->
<g id="edge9" class="edge">
<title>p5&#45;&gt;p21</title>
<path fill="none" stroke="#000000" d="M276.0843,-608.9222C301.0845,-604.1719 451.6881,-575.0534 571.4937,-540.6 574.8075,-539.647 578.2206,-538.6049 581.6391,-537.5178"/>
<polygon fill="#000000" stroke="#000000" points="582.8027,-540.8197 591.2094,-534.3715 580.6164,-534.1698 582.8027,-540.8197"/>
<text text-anchor="middle" x="537.4937" y="-562.4" font-family="Times,serif" font-size="14.00" fill="#000000">oldGenome_3</text>
</g>
<!-- p6 -->
<g id="node13" class="node">
<title>p6</title>
<ellipse fill="#000000" stroke="#000000" cx="222.4937" cy="-522.6" rx="1.8" ry="1.8"/>
</g>
<!-- p5&#45;&gt;p6 -->
<g id="edge10" class="edge">
<title>p5&#45;&gt;p6</title>
<path fill="none" stroke="#000000" d="M269.0377,-608.3335C259.6317,-604.675 233.6013,-593.0918 223.4937,-573.6 217.2333,-561.5274 218.1237,-545.5873 219.8387,-534.7636"/>
<polygon fill="#000000" stroke="#000000" points="223.3216,-535.2035 221.9143,-524.7025 216.466,-533.7891 223.3216,-535.2035"/>
<text text-anchor="middle" x="262.4937" y="-562.4" font-family="Times,serif" font-size="14.00" fill="#000000">oldGenome_4</text>
</g>
<!-- p1 -->
<g id="node3" class="node">
<title>p1</title>
<ellipse fill="#000000" stroke="#000000" cx="623.4937" cy="-1291.2" rx="3.6" ry="3.6"/>
<text text-anchor="middle" x="569.8937" y="-1298.6" font-family="Times,serif" font-size="14.00" fill="#000000">Channel.fromPath</text>
</g>
<!-- p7 -->
<g id="node4" class="node">
<title>p7</title>
<ellipse fill="none" stroke="#000000" cx="623.4937" cy="-1233.1" rx="3.5" ry="3.5"/>
<text text-anchor="middle" x="608.9937" y="-1240.4" font-family="Times,serif" font-size="14.00" fill="#000000">into</text>
</g>
<!-- p1&#45;&gt;p7 -->
<g id="edge2" class="edge">
<title>p1&#45;&gt;p7</title>
<path fill="none" stroke="#000000" d="M623.4937,-1287.3879C623.4937,-1279.3527 623.4937,-1260.3286 623.4937,-1247.083"/>
<polygon fill="#000000" stroke="#000000" points="626.9938,-1246.7015 623.4937,-1236.7015 619.9938,-1246.7015 626.9938,-1246.7015"/>
<text text-anchor="middle" x="658.4937" y="-1258.4" font-family="Times,serif" font-size="14.00" fill="#000000">newGenome</text>
</g>
<!-- p7&#45;&gt;p26 -->
<g id="edge11" class="edge">
<title>p7&#45;&gt;p26</title>
<path fill="none" stroke="#000000" d="M619.9668,-1232.8867C601.5742,-1231.5689 517.4937,-1222.9287 517.4937,-1175.1 517.4937,-1175.1 517.4937,-1175.1 517.4937,-609.6 517.4937,-588.4202 508.2715,-566.3931 499.1624,-549.802"/>
<polygon fill="#000000" stroke="#000000" points="501.9309,-547.5996 493.8828,-540.7092 495.8774,-551.1146 501.9309,-547.5996"/>
<text text-anchor="middle" x="558.9937" y="-910.4" font-family="Times,serif" font-size="14.00" fill="#000000">newGenome_1</text>
</g>
<!-- p7&#45;&gt;p21 -->
<g id="edge12" class="edge">
<title>p7&#45;&gt;p21</title>
<path fill="none" stroke="#000000" d="M623.4937,-1229.4356C623.4937,-1220.2756 623.4937,-1195.6417 623.4937,-1175.1 623.4937,-1175.1 623.4937,-1175.1 623.4937,-609.6 623.4937,-590.1475 623.4937,-568.2484 623.4937,-551.2877"/>
<polygon fill="#000000" stroke="#000000" points="626.9938,-550.9305 623.4937,-540.9306 619.9938,-550.9306 626.9938,-550.9305"/>
<text text-anchor="middle" x="664.9937" y="-910.4" font-family="Times,serif" font-size="14.00" fill="#000000">newGenome_3</text>
</g>
<!-- p8 -->
<g id="node14" class="node">
<title>p8</title>
<ellipse fill="none" stroke="#000000" cx="685.4937" cy="-1175.1" rx="3.5" ry="3.5"/>
<text text-anchor="middle" x="655.9937" y="-1182.4" font-family="Times,serif" font-size="14.00" fill="#000000">splitFasta</text>
</g>
<!-- p7&#45;&gt;p8 -->
<g id="edge13" class="edge">
<title>p7&#45;&gt;p8</title>
<path fill="none" stroke="#000000" d="M626.1577,-1230.6078C634.5236,-1222.7817 660.5821,-1198.4044 675.2306,-1184.7009"/>
<polygon fill="#000000" stroke="#000000" points="677.9968,-1186.9059 682.9085,-1177.5183 673.2147,-1181.794 677.9968,-1186.9059"/>
<text text-anchor="middle" x="703.9937" y="-1200.4" font-family="Times,serif" font-size="14.00" fill="#000000">newGenome_2</text>
</g>
<!-- p2 -->
<g id="node5" class="node">
<title>p2</title>
<ellipse fill="#000000" stroke="#000000" cx="1300.4937" cy="-1291.2" rx="3.6" ry="3.6"/>
<text text-anchor="middle" x="1246.8937" y="-1298.6" font-family="Times,serif" font-size="14.00" fill="#000000">Channel.fromPath</text>
</g>
<!-- p3 -->
<g id="node6" class="node">
<title>p3</title>
<ellipse fill="none" stroke="#000000" cx="1300.4937" cy="-1233.1" rx="3.5" ry="3.5"/>
<text text-anchor="middle" x="1279.4937" y="-1240.4" font-family="Times,serif" font-size="14.00" fill="#000000">flatten</text>
</g>
<!-- p2&#45;&gt;p3 -->
<g id="edge3" class="edge">
<title>p2&#45;&gt;p3</title>
<path fill="none" stroke="#000000" d="M1300.4937,-1287.3879C1300.4937,-1279.3527 1300.4937,-1260.3286 1300.4937,-1247.083"/>
<polygon fill="#000000" stroke="#000000" points="1303.9938,-1246.7015 1300.4937,-1236.7015 1296.9938,-1246.7015 1303.9938,-1246.7015"/>
</g>
<!-- p4 -->
<g id="node7" class="node">
<title>p4</title>
<ellipse fill="none" stroke="#000000" cx="1300.4937" cy="-1175.1" rx="3.5" ry="3.5"/>
<text text-anchor="middle" x="1285.9937" y="-1182.4" font-family="Times,serif" font-size="14.00" fill="#000000">into</text>
</g>
<!-- p3&#45;&gt;p4 -->
<g id="edge4" class="edge">
<title>p3&#45;&gt;p4</title>
<path fill="none" stroke="#000000" d="M1300.4937,-1229.2945C1300.4937,-1221.2731 1300.4937,-1202.2817 1300.4937,-1189.0589"/>
<polygon fill="#000000" stroke="#000000" points="1303.9938,-1188.6953 1300.4937,-1178.6953 1296.9938,-1188.6953 1303.9938,-1188.6953"/>
<text text-anchor="middle" x="1331.4937" y="-1200.4" font-family="Times,serif" font-size="14.00" fill="#000000">gffFiles_ch</text>
</g>
<!-- p30 -->
<g id="node8" class="node">
<title>p30</title>
<ellipse fill="none" stroke="#000000" cx="1243.4937" cy="-1102.6" rx="3.5" ry="3.5"/>
<text text-anchor="middle" x="1215.9937" y="-1109.9" font-family="Times,serif" font-size="14.00" fill="#000000">combine</text>
</g>
<!-- p4&#45;&gt;p30 -->
<g id="edge5" class="edge">
<title>p4&#45;&gt;p30</title>
<path fill="none" stroke="#000000" d="M1296.8441,-1174.2748C1288.7011,-1172.242 1268.9456,-1166.2159 1258.4937,-1153.6 1249.7666,-1143.066 1246.1169,-1127.6339 1244.5906,-1116.5066"/>
<polygon fill="#000000" stroke="#000000" points="1248.0472,-1115.8852 1243.6122,-1106.2633 1241.0789,-1116.5508 1248.0472,-1115.8852"/>
<text text-anchor="middle" x="1283.9937" y="-1142.4" font-family="Times,serif" font-size="14.00" fill="#000000">gffFile_1</text>
</g>
<!-- p36 -->
<g id="node9" class="node">
<title>p36</title>
<ellipse fill="none" stroke="#000000" cx="1265.4937" cy="-609.6" rx="59.5901" ry="18"/>
<text text-anchor="middle" x="1265.4937" y="-605.9" font-family="Times,serif" font-size="14.00" fill="#000000">compare_gffs</text>
</g>
<!-- p4&#45;&gt;p36 -->
<g id="edge6" class="edge">
<title>p4&#45;&gt;p36</title>
<path fill="none" stroke="#000000" d="M1302.2984,-1171.892C1307.7205,-1161.943 1323.4937,-1130.5946 1323.4937,-1102.6 1323.4937,-1102.6 1323.4937,-1102.6 1323.4937,-696.6 1323.4937,-672.5757 1307.9928,-650.1397 1293.018,-634.0705"/>
<polygon fill="#000000" stroke="#000000" points="1295.288,-631.3872 1285.7792,-626.7143 1290.2985,-636.297 1295.288,-631.3872"/>
<text text-anchor="middle" x="1348.9937" y="-910.4" font-family="Times,serif" font-size="14.00" fill="#000000">gffFile_2</text>
</g>
<!-- p31 -->
<g id="node33" class="node">
<title>p31</title>
<ellipse fill="none" stroke="#000000" cx="1170.4937" cy="-1015.6" rx="58.4896" ry="18"/>
<text text-anchor="middle" x="1170.4937" y="-1011.9" font-family="Times,serif" font-size="14.00" fill="#000000">normalizeGff</text>
</g>
<!-- p30&#45;&gt;p31 -->
<g id="edge35" class="edge">
<title>p30&#45;&gt;p31</title>
<path fill="none" stroke="#000000" d="M1241.0648,-1099.7054C1233.4746,-1090.6595 1209.6407,-1062.2547 1191.7558,-1040.9398"/>
<polygon fill="#000000" stroke="#000000" points="1194.3478,-1038.5838 1185.2388,-1033.173 1188.9855,-1043.0833 1194.3478,-1038.5838"/>
<text text-anchor="middle" x="1254.4937" y="-1055.4" font-family="Times,serif" font-size="14.00" fill="#000000">normalizeCmds</text>
</g>
<!-- p27 -->
<g id="node30" class="node">
<title>p27</title>
<ellipse fill="none" stroke="#000000" cx="514.4937" cy="-159.6" rx="42.4939" ry="18"/>
<text text-anchor="middle" x="514.4937" y="-155.9" font-family="Times,serif" font-size="14.00" fill="#000000">chainNet</text>
</g>
<!-- p26&#45;&gt;p27 -->
<g id="edge32" class="edge">
<title>p26&#45;&gt;p27</title>
<path fill="none" stroke="#000000" d="M481.4937,-504.425C481.4937,-489.7613 481.4937,-468.6026 481.4937,-450.1 481.4937,-450.1 481.4937,-450.1 481.4937,-246.6 481.4937,-225.3988 490.1669,-203.0701 498.6204,-186.342"/>
<polygon fill="#000000" stroke="#000000" points="501.8838,-187.661 503.5051,-177.1909 495.7085,-184.3647 501.8838,-187.661"/>
<text text-anchor="middle" x="513.4937" y="-330.4" font-family="Times,serif" font-size="14.00" fill="#000000">chromInfos</text>
</g>
<!-- p10 -->
<g id="node16" class="node">
<title>p10</title>
<ellipse fill="none" stroke="#000000" cx="118.4937" cy="-450.1" rx="3.5" ry="3.5"/>
<text text-anchor="middle" x="103.9937" y="-457.4" font-family="Times,serif" font-size="14.00" fill="#000000">into</text>
</g>
<!-- p9&#45;&gt;p10 -->
<g id="edge15" class="edge">
<title>p9&#45;&gt;p10</title>
<path fill="none" stroke="#000000" d="M118.4937,-504.3052C118.4937,-491.7364 118.4937,-475.3149 118.4937,-463.8543"/>
<polygon fill="#000000" stroke="#000000" points="121.9938,-463.7824 118.4937,-453.7824 114.9938,-463.7825 121.9938,-463.7824"/>
<text text-anchor="middle" x="141.4937" y="-475.4" font-family="Times,serif" font-size="14.00" fill="#000000">old_2bit</text>
</g>
<!-- p22 -->
<g id="node26" class="node">
<title>p22</title>
<ellipse fill="none" stroke="#000000" cx="623.4937" cy="-450.1" rx="3.5" ry="3.5"/>
<text text-anchor="middle" x="601.4937" y="-457.4" font-family="Times,serif" font-size="14.00" fill="#000000">collect</text>
</g>
<!-- p21&#45;&gt;p22 -->
<g id="edge26" class="edge">
<title>p21&#45;&gt;p22</title>
<path fill="none" stroke="#000000" d="M623.4937,-504.3052C623.4937,-491.7364 623.4937,-475.3149 623.4937,-463.8543"/>
<polygon fill="#000000" stroke="#000000" points="626.9938,-463.7824 623.4937,-453.7824 619.9938,-463.7825 626.9938,-463.7824"/>
<text text-anchor="middle" x="640.9937" y="-475.4" font-family="Times,serif" font-size="14.00" fill="#000000">chains</text>
</g>
<!-- p14 -->
<g id="node15" class="node">
<title>p14</title>
<ellipse fill="none" stroke="#000000" cx="733.4937" cy="-1102.6" rx="81.7856" ry="18"/>
<text text-anchor="middle" x="733.4937" y="-1098.9" font-family="Times,serif" font-size="14.00" fill="#000000">evenSmallerChunks</text>
</g>
<!-- p8&#45;&gt;p14 -->
<g id="edge14" class="edge">
<title>p8&#45;&gt;p14</title>
<path fill="none" stroke="#000000" d="M687.5562,-1171.9848C692.4314,-1164.6211 705.0677,-1145.5351 715.8556,-1129.2409"/>
<polygon fill="#000000" stroke="#000000" points="718.9955,-1130.8382 721.5977,-1120.5679 713.1588,-1126.9739 718.9955,-1130.8382"/>
<text text-anchor="middle" x="742.9937" y="-1142.4" font-family="Times,serif" font-size="14.00" fill="#000000">fastaChunks</text>
</g>
<!-- p15 -->
<g id="node20" class="node">
<title>p15</title>
<ellipse fill="none" stroke="#000000" cx="732.4937" cy="-1015.6" rx="3.5" ry="3.5"/>
<text text-anchor="middle" x="716.4937" y="-1022.9" font-family="Times,serif" font-size="14.00" fill="#000000">map</text>
</g>
<!-- p14&#45;&gt;p15 -->
<g id="edge19" class="edge">
<title>p14&#45;&gt;p15</title>
<path fill="none" stroke="#000000" d="M733.2865,-1084.5735C733.097,-1068.0868 732.8208,-1044.0625 732.6495,-1029.1548"/>
<polygon fill="#000000" stroke="#000000" points="736.1492,-1029.1011 732.5344,-1019.142 729.1496,-1029.1816 736.1492,-1029.1011"/>
<text text-anchor="middle" x="788.4937" y="-1055.4" font-family="Times,serif" font-size="14.00" fill="#000000">subsplitFasta_liftUp</text>
</g>
<!-- p12 -->
<g id="node17" class="node">
<title>p12</title>
<ellipse fill="none" stroke="#000000" cx="71.4937" cy="-377.6" rx="71.4873" ry="18"/>
<text text-anchor="middle" x="71.4937" y="-373.9" font-family="Times,serif" font-size="14.00" fill="#000000">constructOocFile</text>
</g>
<!-- p10&#45;&gt;p12 -->
<g id="edge16" class="edge">
<title>p10&#45;&gt;p12</title>
<path fill="none" stroke="#000000" d="M114.8182,-449.5003C106.2395,-447.8858 84.9117,-442.584 75.4937,-428.6 71.1278,-422.1175 69.2908,-414.0654 68.76,-406.2887"/>
<polygon fill="#000000" stroke="#000000" points="72.2593,-406.0182 68.7309,-396.0282 65.2593,-406.0381 72.2593,-406.0182"/>
<text text-anchor="middle" x="104.9937" y="-417.4" font-family="Times,serif" font-size="14.00" fill="#000000">old_2bit_2</text>
</g>
<!-- p11 -->
<g id="node18" class="node">
<title>p11</title>
<ellipse fill="#000000" stroke="#000000" cx="162.4937" cy="-377.6" rx="1.8" ry="1.8"/>
</g>
<!-- p10&#45;&gt;p11 -->
<g id="edge17" class="edge">
<title>p10&#45;&gt;p11</title>
<path fill="none" stroke="#000000" d="M121.3761,-447.5503C125.5541,-443.7427 133.3536,-436.2016 138.4937,-428.6 147.0034,-416.0149 154.0184,-399.9376 158.2219,-389.2322"/>
<polygon fill="#000000" stroke="#000000" points="161.5752,-390.2565 161.7861,-379.6638 155.0155,-387.813 161.5752,-390.2565"/>
<text text-anchor="middle" x="176.9937" y="-417.4" font-family="Times,serif" font-size="14.00" fill="#000000">old_2bit_1</text>
</g>
<!-- p13 -->
<g id="node19" class="node">
<title>p13</title>
<ellipse fill="#000000" stroke="#000000" cx="71.4937" cy="-305.1" rx="1.8" ry="1.8"/>
</g>
<!-- p12&#45;&gt;p13 -->
<g id="edge18" class="edge">
<title>p12&#45;&gt;p13</title>
<path fill="none" stroke="#000000" d="M71.4937,-359.3052C71.4937,-346.039 71.4937,-328.4807 71.4937,-316.9939"/>
<polygon fill="#000000" stroke="#000000" points="74.9938,-316.9193 71.4937,-306.9193 67.9938,-316.9193 74.9938,-316.9193"/>
<text text-anchor="middle" x="81.4937" y="-330.4" font-family="Times,serif" font-size="14.00" fill="#000000">ooc</text>
</g>
<!-- p16 -->
<g id="node21" class="node">
<title>p16</title>
<ellipse fill="none" stroke="#000000" cx="731.4937" cy="-943.1" rx="3.5" ry="3.5"/>
<text text-anchor="middle" x="701.9937" y="-950.4" font-family="Times,serif" font-size="14.00" fill="#000000">transpose</text>
</g>
<!-- p15&#45;&gt;p16 -->
<g id="edge20" class="edge">
<title>p15&#45;&gt;p16</title>
<path fill="none" stroke="#000000" d="M732.4399,-1011.7021C732.3002,-1001.577 731.9206,-974.0543 731.6868,-957.1062"/>
<polygon fill="#000000" stroke="#000000" points="735.1806,-956.6213 731.5429,-946.6706 728.1813,-956.7179 735.1806,-956.6213"/>
</g>
<!-- p17 -->
<g id="node22" class="node">
<title>p17</title>
<ellipse fill="none" stroke="#000000" cx="729.4937" cy="-870.6" rx="3.5" ry="3.5"/>
<text text-anchor="middle" x="701.9937" y="-877.9" font-family="Times,serif" font-size="14.00" fill="#000000">combine</text>
</g>
<!-- p16&#45;&gt;p17 -->
<g id="edge21" class="edge">
<title>p16&#45;&gt;p17</title>
<path fill="none" stroke="#000000" d="M731.3861,-939.2021C731.1068,-929.077 730.3476,-901.5543 729.88,-884.6062"/>
<polygon fill="#000000" stroke="#000000" points="733.3667,-884.0702 729.5922,-874.1706 726.3693,-884.2633 733.3667,-884.0702"/>
<text text-anchor="middle" x="775.9937" y="-910.4" font-family="Times,serif" font-size="14.00" fill="#000000">subFastaChunks</text>
</g>
<!-- p18 -->
<g id="node23" class="node">
<title>p18</title>
<ellipse fill="none" stroke="#000000" cx="718.4937" cy="-783.6" rx="3.5" ry="3.5"/>
<text text-anchor="middle" x="690.9937" y="-790.9" font-family="Times,serif" font-size="14.00" fill="#000000">combine</text>
</g>
<!-- p17&#45;&gt;p18 -->
<g id="edge22" class="edge">
<title>p17&#45;&gt;p18</title>
<path fill="none" stroke="#000000" d="M729.021,-866.8617C727.5226,-855.0107 722.8251,-817.8578 720.2408,-797.4184"/>
<polygon fill="#000000" stroke="#000000" points="723.6791,-796.7095 718.9523,-787.2275 716.7344,-797.5876 723.6791,-796.7095"/>
</g>
<!-- p19 -->
<g id="node24" class="node">
<title>p19</title>
<ellipse fill="none" stroke="#000000" cx="713.4937" cy="-696.6" rx="46.2923" ry="18"/>
<text text-anchor="middle" x="713.4937" y="-692.9" font-family="Times,serif" font-size="14.00" fill="#000000">blat_align</text>
</g>
<!-- p18&#45;&gt;p19 -->
<g id="edge23" class="edge">
<title>p18&#45;&gt;p19</title>
<path fill="none" stroke="#000000" d="M718.2788,-779.8617C717.7376,-770.445 716.2783,-745.053 715.1123,-724.7647"/>
<polygon fill="#000000" stroke="#000000" points="718.6038,-724.5148 714.5357,-714.7322 711.6154,-724.9165 718.6038,-724.5148"/>
<text text-anchor="middle" x="742.9937" y="-736.4" font-family="Times,serif" font-size="14.00" fill="#000000">blatCmds</text>
</g>
<!-- p20 -->
<g id="node25" class="node">
<title>p20</title>
<ellipse fill="none" stroke="#000000" cx="670.4937" cy="-609.6" rx="3.5" ry="3.5"/>
<text text-anchor="middle" x="637.9937" y="-616.9" font-family="Times,serif" font-size="14.00" fill="#000000">collectFile</text>
</g>
<!-- p19&#45;&gt;p20 -->
<g id="edge24" class="edge">
<title>p19&#45;&gt;p20</title>
<path fill="none" stroke="#000000" d="M704.584,-678.5735C696.194,-661.5985 683.8546,-636.6326 676.5504,-621.8544"/>
<polygon fill="#000000" stroke="#000000" points="679.6638,-620.2542 672.0952,-612.8403 673.3884,-623.3559 679.6638,-620.2542"/>
<text text-anchor="middle" x="736.4937" y="-649.4" font-family="Times,serif" font-size="14.00" fill="#000000">axtChainCmds</text>
</g>
<!-- p20&#45;&gt;p21 -->
<g id="edge25" class="edge">
<title>p20&#45;&gt;p21</title>
<path fill="none" stroke="#000000" d="M668.7086,-606.2957C663.7065,-597.0366 649.1841,-570.1547 637.9333,-549.3287"/>
<polygon fill="#000000" stroke="#000000" points="640.8727,-547.4059 633.0402,-540.2713 634.7139,-550.7331 640.8727,-547.4059"/>
</g>
<!-- p23 -->
<g id="node27" class="node">
<title>p23</title>
<ellipse fill="none" stroke="#000000" cx="623.4937" cy="-377.6" rx="53.0913" ry="18"/>
<text text-anchor="middle" x="623.4937" y="-373.9" font-family="Times,serif" font-size="14.00" fill="#000000">chainMerge</text>
</g>
<!-- p22&#45;&gt;p23 -->
<g id="edge27" class="edge">
<title>p22&#45;&gt;p23</title>
<path fill="none" stroke="#000000" d="M623.4937,-446.2021C623.4937,-438.6027 623.4937,-421.203 623.4937,-405.8295"/>
<polygon fill="#000000" stroke="#000000" points="626.9938,-405.6553 623.4937,-395.6553 619.9938,-405.6553 626.9938,-405.6553"/>
</g>
<!-- p24 -->
<g id="node28" class="node">
<title>p24</title>
<ellipse fill="none" stroke="#000000" cx="623.4937" cy="-305.1" rx="3.5" ry="3.5"/>
<text text-anchor="middle" x="590.9937" y="-312.4" font-family="Times,serif" font-size="14.00" fill="#000000">collectFile</text>
</g>
<!-- p23&#45;&gt;p24 -->
<g id="edge28" class="edge">
<title>p23&#45;&gt;p24</title>
<path fill="none" stroke="#000000" d="M623.4937,-359.3052C623.4937,-346.7364 623.4937,-330.3149 623.4937,-318.8543"/>
<polygon fill="#000000" stroke="#000000" points="626.9938,-318.7824 623.4937,-308.7824 619.9938,-318.7825 626.9938,-318.7824"/>
<text text-anchor="middle" x="673.9937" y="-330.4" font-family="Times,serif" font-size="14.00" fill="#000000">sortMergedChains</text>
</g>
<!-- p25 -->
<g id="node29" class="node">
<title>p25</title>
<ellipse fill="none" stroke="#000000" cx="623.4937" cy="-246.6" rx="44.393" ry="18"/>
<text text-anchor="middle" x="623.4937" y="-242.9" font-family="Times,serif" font-size="14.00" fill="#000000">chainSort</text>
</g>
<!-- p24&#45;&gt;p25 -->
<g id="edge29" class="edge">
<title>p24&#45;&gt;p25</title>
<path fill="none" stroke="#000000" d="M623.4937,-301.2617C623.4937,-295.7711 623.4937,-285.1846 623.4937,-274.779"/>
<polygon fill="#000000" stroke="#000000" points="626.9938,-274.6292 623.4937,-264.6293 619.9938,-274.6293 626.9938,-274.6292"/>
</g>
<!-- p25&#45;&gt;p27 -->
<g id="edge30" class="edge">
<title>p25&#45;&gt;p27</title>
<path fill="none" stroke="#000000" d="M583.8376,-238.4028C556.5859,-231.8816 523.8684,-221.9825 515.4937,-210.6 510.7497,-204.1523 509.2311,-195.8996 509.2517,-187.9203"/>
<polygon fill="#000000" stroke="#000000" points="512.7557,-187.9997 510.0235,-177.7632 505.7758,-187.4692 512.7557,-187.9997"/>
<text text-anchor="middle" x="562.9937" y="-199.4" font-family="Times,serif" font-size="14.00" fill="#000000">allSortedChain_1</text>
</g>
<!-- p28 -->
<g id="node31" class="node">
<title>p28</title>
<ellipse fill="none" stroke="#000000" cx="569.4937" cy="-72.6" rx="83.3857" ry="18"/>
<text text-anchor="middle" x="569.4937" y="-68.9" font-family="Times,serif" font-size="14.00" fill="#000000">produceLiftOverFile</text>
</g>
<!-- p25&#45;&gt;p28 -->
<g id="edge31" class="edge">
<title>p25&#45;&gt;p28</title>
<path fill="none" stroke="#000000" d="M620.0218,-228.358C614.6396,-201.5814 603.2377,-150.2947 587.4937,-108.6 586.3936,-105.6869 585.1312,-102.6971 583.7961,-99.7456"/>
<polygon fill="#000000" stroke="#000000" points="586.8814,-98.0852 579.3944,-90.5888 580.5725,-101.118 586.8814,-98.0852"/>
<text text-anchor="middle" x="655.9937" y="-155.9" font-family="Times,serif" font-size="14.00" fill="#000000">allSortedChain_2</text>
</g>
<!-- p27&#45;&gt;p28 -->
<g id="edge33" class="edge">
<title>p27&#45;&gt;p28</title>
<path fill="none" stroke="#000000" d="M525.6237,-141.9943C533.3999,-129.6938 543.9216,-113.0503 552.7115,-99.1463"/>
<polygon fill="#000000" stroke="#000000" points="555.8061,-100.801 558.1914,-90.4782 549.8893,-97.0605 555.8061,-100.801"/>
<text text-anchor="middle" x="564.4937" y="-112.4" font-family="Times,serif" font-size="14.00" fill="#000000">netFile</text>
</g>
<!-- p29 -->
<g id="node32" class="node">
<title>p29</title>
<ellipse fill="#000000" stroke="#000000" cx="569.4937" cy="-1.8" rx="1.8" ry="1.8"/>
</g>
<!-- p28&#45;&gt;p29 -->
<g id="edge34" class="edge">
<title>p28&#45;&gt;p29</title>
<path fill="none" stroke="#000000" d="M569.4937,-54.3672C569.4937,-41.7838 569.4937,-25.3818 569.4937,-14.2703"/>
<polygon fill="#000000" stroke="#000000" points="572.9938,-13.9527 569.4937,-3.9527 565.9938,-13.9527 572.9938,-13.9527"/>
<text text-anchor="middle" x="608.4937" y="-25.4" font-family="Times,serif" font-size="14.00" fill="#000000">liftOverFile_2</text>
</g>
<!-- p32 -->
<g id="node34" class="node">
<title>p32</title>
<ellipse fill="none" stroke="#000000" cx="1042.4937" cy="-943.1" rx="3.5" ry="3.5"/>
<text text-anchor="middle" x="1014.9937" y="-950.4" font-family="Times,serif" font-size="14.00" fill="#000000">combine</text>
</g>
<!-- p31&#45;&gt;p32 -->
<g id="edge36" class="edge">
<title>p31&#45;&gt;p32</title>
<path fill="none" stroke="#000000" d="M1142.4035,-999.6896C1114.9619,-984.1465 1074.4973,-961.2271 1054.5347,-949.9201"/>
<polygon fill="#000000" stroke="#000000" points="1056.0096,-946.7331 1045.5835,-944.8501 1052.5597,-952.824 1056.0096,-946.7331"/>
<text text-anchor="middle" x="1146.9937" y="-968.4" font-family="Times,serif" font-size="14.00" fill="#000000">normalizedGff</text>
</g>
<!-- p33 -->
<g id="node35" class="node">
<title>p33</title>
<ellipse fill="none" stroke="#000000" cx="978.4937" cy="-870.6" rx="56.59" ry="18"/>
<text text-anchor="middle" x="978.4937" y="-866.9" font-family="Times,serif" font-size="14.00" fill="#000000">ucsc_liftover</text>
</g>
<!-- p32&#45;&gt;p33 -->
<g id="edge37" class="edge">
<title>p32&#45;&gt;p33</title>
<path fill="none" stroke="#000000" d="M1040.0629,-940.3464C1033.6662,-933.1001 1015.8356,-912.9014 1000.9991,-896.0944"/>
<polygon fill="#000000" stroke="#000000" points="1003.2613,-893.3684 994.0194,-888.1878 998.0135,-898.001 1003.2613,-893.3684"/>
<text text-anchor="middle" x="1057.9937" y="-910.4" font-family="Times,serif" font-size="14.00" fill="#000000">liftoverCmds</text>
</g>
<!-- p34 -->
<g id="node36" class="node">
<title>p34</title>
<ellipse fill="none" stroke="#000000" cx="905.4937" cy="-783.6" rx="96.6831" ry="18"/>
<text text-anchor="middle" x="905.4937" y="-779.9" font-family="Times,serif" font-size="14.00" fill="#000000">rescue_unlifted_features</text>
</g>
<!-- p33&#45;&gt;p34 -->
<g id="edge38" class="edge">
<title>p33&#45;&gt;p34</title>
<path fill="none" stroke="#000000" d="M924.2263,-865.246C863.4253,-858.6888 771.9427,-846.9254 761.4937,-834.6 757.1826,-829.5148 757.3909,-824.8547 761.4937,-819.6 769.2631,-809.6491 792.1801,-802.0418 817.5112,-796.4417"/>
<polygon fill="#000000" stroke="#000000" points="818.2391,-799.8653 827.3113,-794.393 816.8066,-793.0134 818.2391,-799.8653"/>
<text text-anchor="middle" x="791.9937" y="-823.4" font-family="Times,serif" font-size="14.00" fill="#000000">gffOriginal</text>
</g>
<!-- p33&#45;&gt;p34 -->
<g id="edge40" class="edge">
<title>p33&#45;&gt;p34</title>
<path fill="none" stroke="#000000" d="M926.8763,-863.1877C893.9398,-857.2813 855.5977,-847.8025 845.4937,-834.6 837.2576,-823.8383 844.3954,-813.7642 856.2362,-805.4587"/>
<polygon fill="#000000" stroke="#000000" points="858.3905,-808.2417 865.0539,-800.0046 854.7081,-802.2885 858.3905,-808.2417"/>
<text text-anchor="middle" x="899.9937" y="-823.4" font-family="Times,serif" font-size="14.00" fill="#000000">ucsc_lifted_gff_ch2</text>
</g>
<!-- p33&#45;&gt;p34 -->
<g id="edge42" class="edge">
<title>p33&#45;&gt;p34</title>
<path fill="none" stroke="#000000" d="M972.4625,-852.3541C968.4522,-842.0222 962.4522,-829.2722 954.4937,-819.6 950.8886,-815.2186 946.6372,-811.0901 942.17,-807.3014"/>
<polygon fill="#000000" stroke="#000000" points="944.0127,-804.2979 933.9886,-800.8674 939.6855,-809.8002 944.0127,-804.2979"/>
<text text-anchor="middle" x="1016.4937" y="-823.4" font-family="Times,serif" font-size="14.00" fill="#000000">unmapped_gff_ch2</text>
</g>
<!-- p35 -->
<g id="node37" class="node">
<title>p35</title>
<ellipse fill="none" stroke="#000000" cx="1156.4937" cy="-696.6" rx="38.1938" ry="18"/>
<text text-anchor="middle" x="1156.4937" y="-692.9" font-family="Times,serif" font-size="14.00" fill="#000000">sort_gff</text>
</g>
<!-- p33&#45;&gt;p35 -->
<g id="edge39" class="edge">
<title>p33&#45;&gt;p35</title>
<path fill="none" stroke="#000000" d="M1025.0309,-860.1538C1041.7156,-854.6613 1059.7739,-846.5078 1073.4937,-834.6 1099.9336,-811.652 1093.4744,-795.6164 1111.4937,-765.6 1120.2256,-751.0544 1130.5275,-735.1734 1139.0695,-722.3178"/>
<polygon fill="#000000" stroke="#000000" points="1142.0125,-724.2131 1144.6612,-713.9547 1136.1934,-720.3224 1142.0125,-724.2131"/>
<text text-anchor="middle" x="1152.4937" y="-779.9" font-family="Times,serif" font-size="14.00" fill="#000000">ucsc_lifted_gff</text>
</g>
<!-- p33&#45;&gt;p35 -->
<g id="edge41" class="edge">
<title>p33&#45;&gt;p35</title>
<path fill="none" stroke="#000000" d="M1027.8685,-861.7137C1085.0449,-850.2966 1173.9124,-828.6818 1193.4937,-801.6 1211.0669,-777.2955 1193.7412,-743.876 1177.3681,-721.3219"/>
<polygon fill="#000000" stroke="#000000" points="1180.061,-719.0812 1171.2143,-713.2514 1174.4946,-723.3257 1180.061,-719.0812"/>
<text text-anchor="middle" x="1240.4937" y="-779.9" font-family="Times,serif" font-size="14.00" fill="#000000">unmapped_gff</text>
</g>
<!-- p34&#45;&gt;p35 -->
<g id="edge43" class="edge">
<title>p34&#45;&gt;p35</title>
<path fill="none" stroke="#000000" d="M940.5329,-766.6955C963.497,-756.0256 994.3647,-742.4479 1022.4937,-732.6 1051.7979,-722.3407 1085.5618,-713.2864 1111.8663,-706.8243"/>
<polygon fill="#000000" stroke="#000000" points="1113.0233,-710.1454 1121.9194,-704.3912 1111.3766,-703.3419 1113.0233,-710.1454"/>
<text text-anchor="middle" x="1052.9937" y="-736.4" font-family="Times,serif" font-size="14.00" fill="#000000">rescuedGff</text>
</g>
<!-- p35&#45;&gt;p36 -->
<g id="edge44" class="edge">
<title>p35&#45;&gt;p36</title>
<path fill="none" stroke="#000000" d="M1175.9807,-681.0461C1192.805,-667.6176 1217.3491,-648.0273 1236.483,-632.7553"/>
<polygon fill="#000000" stroke="#000000" points="1238.6814,-635.4788 1244.3137,-626.5051 1234.3147,-630.0078 1238.6814,-635.4788"/>
<text text-anchor="middle" x="1241.4937" y="-649.4" font-family="Times,serif" font-size="14.00" fill="#000000">final_gff</text>
</g>
</g>
</svg>
