<?xml version="1.0" encoding="UTF-8" standalone="no"?>
<!DOCTYPE svg PUBLIC "-//W3C//DTD SVG 1.1//EN"
 "http://www.w3.org/Graphics/SVG/1.1/DTD/svg11.dtd">
<!-- Generated by graphviz version 2.40.1 (20161225.0304)
 -->
<!-- Title: flowchart Pages: 1 -->
<svg width="853pt" height="1597pt"
 viewBox="0.00 0.00 852.61 1597.40" xmlns="http://www.w3.org/2000/svg" xmlns:xlink="http://www.w3.org/1999/xlink">
<g id="graph0" class="graph" transform="scale(1 1) rotate(0) translate(4 1593.4)">
<title>flowchart</title>
<polygon fill="#ffffff" stroke="transparent" points="-4,4 -4,-1593.4 848.6107,-1593.4 848.6107,4 -4,4"/>
<!-- p0 -->
<g id="node1" class="node">
<title>p0</title>
<ellipse fill="#000000" stroke="#000000" cx="394.8588" cy="-1457.6" rx="3.6" ry="3.6"/>
<text text-anchor="middle" x="340.1294" y="-1464" font-family="Times,serif" font-size="14.00" fill="#000000">Channel.fromPath</text>
</g>
<!-- p5 -->
<g id="node2" class="node">
<title>p5</title>
<ellipse fill="none" stroke="#000000" cx="394.8588" cy="-1386" rx="3.5" ry="3.5"/>
<text text-anchor="middle" x="380.4691" y="-1392.3" font-family="Times,serif" font-size="14.00" fill="#000000">into</text>
</g>
<!-- p0&#45;&gt;p5 -->
<g id="edge1" class="edge">
<title>p0&#45;&gt;p5</title>
<path fill="none" stroke="#000000" d="M394.8588,-1453.7505C394.8588,-1443.751 394.8588,-1416.57 394.8588,-1399.8324"/>
<polygon fill="#000000" stroke="#000000" points="398.3589,-1399.5262 394.8588,-1389.5262 391.3589,-1399.5263 398.3589,-1399.5262"/>
<text text-anchor="middle" x="427.5175" y="-1424.8" font-family="Times,serif" font-size="14.00" fill="#000000">oldGenome</text>
</g>
<!-- p26 -->
<g id="node8" class="node">
<title>p26</title>
<ellipse fill="none" stroke="#000000" cx="192.8588" cy="-505" rx="3.5" ry="3.5"/>
<text text-anchor="middle" x="165.2553" y="-511.3" font-family="Times,serif" font-size="14.00" fill="#000000">combine</text>
</g>
<!-- p5&#45;&gt;p26 -->
<g id="edge10" class="edge">
<title>p5&#45;&gt;p26</title>
<path fill="none" stroke="#000000" d="M391.3874,-1385.324C364.8295,-1380.0561 194.8588,-1344.5995 194.8588,-1300 194.8588,-1300 194.8588,-1300 194.8588,-591 194.8588,-565.5319 193.9713,-535.8327 193.3787,-518.8406"/>
<polygon fill="#000000" stroke="#000000" points="196.8675,-518.4689 193.0026,-508.6042 189.8722,-518.7259 196.8675,-518.4689"/>
<text text-anchor="middle" x="234.5175" y="-934.8" font-family="Times,serif" font-size="14.00" fill="#000000">oldGenome_4</text>
</g>
<!-- p18 -->
<g id="node10" class="node">
<title>p18</title>
<ellipse fill="none" stroke="#000000" cx="580.8588" cy="-864" rx="42.0697" ry="18"/>
<text text-anchor="middle" x="580.8588" y="-859.8" font-family="Times,serif" font-size="14.00" fill="#000000">axtChain</text>
</g>
<!-- p5&#45;&gt;p18 -->
<g id="edge7" class="edge">
<title>p5&#45;&gt;p18</title>
<path fill="none" stroke="#000000" d="M398.3822,-1385.3343C425.3385,-1380.1444 597.8588,-1345.1648 597.8588,-1300 597.8588,-1300 597.8588,-1300 597.8588,-939 597.8588,-923.1476 594.2018,-905.8664 590.2801,-891.8918"/>
<polygon fill="#000000" stroke="#000000" points="593.5159,-890.4979 587.2858,-881.9284 586.8121,-892.5126 593.5159,-890.4979"/>
<text text-anchor="middle" x="637.5175" y="-1109.8" font-family="Times,serif" font-size="14.00" fill="#000000">oldGenome_3</text>
</g>
<!-- p8 -->
<g id="node11" class="node">
<title>p8</title>
<ellipse fill="none" stroke="#000000" cx="485.8588" cy="-1300" rx="83.771" ry="18"/>
<text text-anchor="middle" x="485.8588" y="-1295.8" font-family="Times,serif" font-size="14.00" fill="#000000">convertFAto2bit_old</text>
</g>
<!-- p5&#45;&gt;p8 -->
<g id="edge8" class="edge">
<title>p5&#45;&gt;p8</title>
<path fill="none" stroke="#000000" d="M397.4841,-1383.5189C406.543,-1374.9578 437.1791,-1346.005 459.8519,-1324.5779"/>
<polygon fill="#000000" stroke="#000000" points="462.3291,-1327.0525 467.193,-1317.6402 457.5211,-1321.965 462.3291,-1327.0525"/>
<text text-anchor="middle" x="485.5175" y="-1338.8" font-family="Times,serif" font-size="14.00" fill="#000000">oldGenome_1</text>
</g>
<!-- p23 -->
<g id="node12" class="node">
<title>p23</title>
<ellipse fill="none" stroke="#000000" cx="303.8588" cy="-1300" rx="80.649" ry="18"/>
<text text-anchor="middle" x="303.8588" y="-1295.8" font-family="Times,serif" font-size="14.00" fill="#000000">calculateChromInfo</text>
</g>
<!-- p5&#45;&gt;p23 -->
<g id="edge9" class="edge">
<title>p5&#45;&gt;p23</title>
<path fill="none" stroke="#000000" d="M392.1092,-1383.8108C385.2524,-1378.3199 366.9143,-1363.4389 352.5414,-1350 344.3112,-1342.3046 335.636,-1333.6018 327.9252,-1325.639"/>
<polygon fill="#000000" stroke="#000000" points="330.0356,-1322.783 320.5881,-1317.9876 324.9832,-1327.6279 330.0356,-1322.783"/>
<text text-anchor="middle" x="392.5175" y="-1338.8" font-family="Times,serif" font-size="14.00" fill="#000000">oldGenome_2</text>
</g>
<!-- p1 -->
<g id="node3" class="node">
<title>p1</title>
<ellipse fill="#000000" stroke="#000000" cx="630.8588" cy="-1571.8" rx="3.6" ry="3.6"/>
<text text-anchor="middle" x="576.1294" y="-1578.2" font-family="Times,serif" font-size="14.00" fill="#000000">Channel.fromPath</text>
</g>
<!-- p6 -->
<g id="node4" class="node">
<title>p6</title>
<ellipse fill="none" stroke="#000000" cx="630.8588" cy="-1514.7" rx="3.5" ry="3.5"/>
<text text-anchor="middle" x="616.4691" y="-1521" font-family="Times,serif" font-size="14.00" fill="#000000">into</text>
</g>
<!-- p1&#45;&gt;p6 -->
<g id="edge2" class="edge">
<title>p1&#45;&gt;p6</title>
<path fill="none" stroke="#000000" d="M630.8588,-1568.0535C630.8588,-1560.1566 630.8588,-1541.4599 630.8588,-1528.4423"/>
<polygon fill="#000000" stroke="#000000" points="634.3589,-1528.2395 630.8588,-1518.2395 627.3589,-1528.2396 634.3589,-1528.2395"/>
<text text-anchor="middle" x="666.2348" y="-1539" font-family="Times,serif" font-size="14.00" fill="#000000">newGenome</text>
</g>
<!-- p6&#45;&gt;p18 -->
<g id="edge13" class="edge">
<title>p6&#45;&gt;p18</title>
<path fill="none" stroke="#000000" d="M634.4702,-1514.4554C646.9919,-1513.4813 689.4379,-1509.1206 719.8588,-1493.2 740.9447,-1482.1648 759.8588,-1481.399 759.8588,-1457.6 759.8588,-1457.6 759.8588,-1457.6 759.8588,-939 759.8588,-910.5115 681.7557,-886.9345 628.7319,-874.2109"/>
<polygon fill="#000000" stroke="#000000" points="629.355,-870.7621 618.8201,-871.8876 627.7575,-877.5774 629.355,-870.7621"/>
<text text-anchor="middle" x="802.2348" y="-1195.8" font-family="Times,serif" font-size="14.00" fill="#000000">newGenome_3</text>
</g>
<!-- p6&#45;&gt;p23 -->
<g id="edge12" class="edge">
<title>p6&#45;&gt;p23</title>
<path fill="none" stroke="#000000" d="M627.2953,-1514.4443C594.6071,-1512.0176 347.122,-1491.8901 306.1068,-1436 283.2362,-1404.835 288.6956,-1357.917 295.6055,-1328.1358"/>
<polygon fill="#000000" stroke="#000000" points="299.0166,-1328.9225 298.066,-1318.3704 292.2287,-1327.2121 299.0166,-1328.9225"/>
<text text-anchor="middle" x="349.2348" y="-1424.8" font-family="Times,serif" font-size="14.00" fill="#000000">newGenome_1</text>
</g>
<!-- p7 -->
<g id="node13" class="node">
<title>p7</title>
<ellipse fill="none" stroke="#000000" cx="630.8588" cy="-1457.6" rx="3.5" ry="3.5"/>
<text text-anchor="middle" x="600.5243" y="-1463.9" font-family="Times,serif" font-size="14.00" fill="#000000">splitFasta</text>
</g>
<!-- p6&#45;&gt;p7 -->
<g id="edge11" class="edge">
<title>p6&#45;&gt;p7</title>
<path fill="none" stroke="#000000" d="M630.8588,-1510.9535C630.8588,-1503.0566 630.8588,-1484.3599 630.8588,-1471.3423"/>
<polygon fill="#000000" stroke="#000000" points="634.3589,-1471.1395 630.8588,-1461.1395 627.3589,-1471.1396 634.3589,-1471.1395"/>
<text text-anchor="middle" x="673.2348" y="-1482" font-family="Times,serif" font-size="14.00" fill="#000000">newGenome_2</text>
</g>
<!-- p2 -->
<g id="node5" class="node">
<title>p2</title>
<ellipse fill="#000000" stroke="#000000" cx="105.8588" cy="-734" rx="3.6" ry="3.6"/>
<text text-anchor="middle" x="51.1294" y="-740.4" font-family="Times,serif" font-size="14.00" fill="#000000">Channel.fromPath</text>
</g>
<!-- p3 -->
<g id="node6" class="node">
<title>p3</title>
<ellipse fill="none" stroke="#000000" cx="105.8588" cy="-662.5" rx="3.5" ry="3.5"/>
<text text-anchor="middle" x="84.8622" y="-668.8" font-family="Times,serif" font-size="14.00" fill="#000000">flatten</text>
</g>
<!-- p2&#45;&gt;p3 -->
<g id="edge3" class="edge">
<title>p2&#45;&gt;p3</title>
<path fill="none" stroke="#000000" d="M105.8588,-730.1558C105.8588,-720.1704 105.8588,-693.0273 105.8588,-676.3131"/>
<polygon fill="#000000" stroke="#000000" points="109.3589,-676.0213 105.8588,-666.0213 102.3589,-676.0213 109.3589,-676.0213"/>
</g>
<!-- p4 -->
<g id="node7" class="node">
<title>p4</title>
<ellipse fill="none" stroke="#000000" cx="105.8588" cy="-591" rx="3.5" ry="3.5"/>
<text text-anchor="middle" x="91.4691" y="-597.3" font-family="Times,serif" font-size="14.00" fill="#000000">into</text>
</g>
<!-- p3&#45;&gt;p4 -->
<g id="edge4" class="edge">
<title>p3&#45;&gt;p4</title>
<path fill="none" stroke="#000000" d="M105.8588,-658.6558C105.8588,-648.6704 105.8588,-621.5273 105.8588,-604.8131"/>
<polygon fill="#000000" stroke="#000000" points="109.3589,-604.5213 105.8588,-594.5213 102.3589,-604.5213 109.3589,-604.5213"/>
<text text-anchor="middle" x="137.6186" y="-629.8" font-family="Times,serif" font-size="14.00" fill="#000000">gffFiles_ch</text>
</g>
<!-- p4&#45;&gt;p26 -->
<g id="edge5" class="edge">
<title>p4&#45;&gt;p26</title>
<path fill="none" stroke="#000000" d="M106.6971,-587.4238C108.9284,-578.5752 115.7652,-555.3377 129.0014,-541 143.2994,-525.5121 165.8256,-514.996 179.9484,-509.5014"/>
<polygon fill="#000000" stroke="#000000" points="181.2501,-512.7526 189.4699,-506.0679 178.8756,-506.1677 181.2501,-512.7526"/>
<text text-anchor="middle" x="155.7875" y="-543.8" font-family="Times,serif" font-size="14.00" fill="#000000">gffFile_1</text>
</g>
<!-- p32 -->
<g id="node9" class="node">
<title>p32</title>
<ellipse fill="none" stroke="#000000" cx="110.8588" cy="-18" rx="58.6378" ry="18"/>
<text text-anchor="middle" x="110.8588" y="-13.8" font-family="Times,serif" font-size="14.00" fill="#000000">compare_gffs</text>
</g>
<!-- p4&#45;&gt;p32 -->
<g id="edge6" class="edge">
<title>p4&#45;&gt;p32</title>
<path fill="none" stroke="#000000" d="M105.0677,-587.4162C102.5455,-575.6655 94.8588,-537.2117 94.8588,-505 94.8588,-505 94.8588,-505 94.8588,-104 94.8588,-84.2548 98.9858,-62.3833 103.0477,-45.6383"/>
<polygon fill="#000000" stroke="#000000" points="106.4412,-46.4951 105.531,-35.9394 99.6599,-44.7587 106.4412,-46.4951"/>
<text text-anchor="middle" x="120.7875" y="-314.8" font-family="Times,serif" font-size="14.00" fill="#000000">gffFile_2</text>
</g>
<!-- p27 -->
<g id="node30" class="node">
<title>p27</title>
<ellipse fill="none" stroke="#000000" cx="192.8588" cy="-419" rx="57.6688" ry="18"/>
<text text-anchor="middle" x="192.8588" y="-414.8" font-family="Times,serif" font-size="14.00" fill="#000000">normalizeGff</text>
</g>
<!-- p26&#45;&gt;p27 -->
<g id="edge35" class="edge">
<title>p26&#45;&gt;p27</title>
<path fill="none" stroke="#000000" d="M192.8588,-501.3047C192.8588,-492.0934 192.8588,-467.4185 192.8588,-447.4709"/>
<polygon fill="#000000" stroke="#000000" points="196.3589,-447.291 192.8588,-437.291 189.3589,-447.291 196.3589,-447.291"/>
<text text-anchor="middle" x="237.183" y="-457.8" font-family="Times,serif" font-size="14.00" fill="#000000">normalizeCmds</text>
</g>
<!-- p19 -->
<g id="node23" class="node">
<title>p19</title>
<ellipse fill="none" stroke="#000000" cx="502.8588" cy="-792.5" rx="3.5" ry="3.5"/>
<text text-anchor="middle" x="480.7035" y="-798.8" font-family="Times,serif" font-size="14.00" fill="#000000">collect</text>
</g>
<!-- p18&#45;&gt;p19 -->
<g id="edge26" class="edge">
<title>p18&#45;&gt;p19</title>
<path fill="none" stroke="#000000" d="M562.768,-847.4167C547.4188,-833.3467 525.9349,-813.6531 513.3004,-802.0715"/>
<polygon fill="#000000" stroke="#000000" points="515.3486,-799.201 505.6119,-795.0237 510.6185,-804.361 515.3486,-799.201"/>
<text text-anchor="middle" x="557.7416" y="-816.8" font-family="Times,serif" font-size="14.00" fill="#000000">chains</text>
</g>
<!-- p9 -->
<g id="node15" class="node">
<title>p9</title>
<ellipse fill="none" stroke="#000000" cx="485.8588" cy="-1228.5" rx="3.5" ry="3.5"/>
<text text-anchor="middle" x="471.4691" y="-1234.8" font-family="Times,serif" font-size="14.00" fill="#000000">into</text>
</g>
<!-- p8&#45;&gt;p9 -->
<g id="edge15" class="edge">
<title>p8&#45;&gt;p9</title>
<path fill="none" stroke="#000000" d="M485.8588,-1281.9575C485.8588,-1269.694 485.8588,-1253.7112 485.8588,-1242.4269"/>
<polygon fill="#000000" stroke="#000000" points="489.3589,-1242.1316 485.8588,-1232.1316 482.3589,-1242.1317 489.3589,-1242.1316"/>
<text text-anchor="middle" x="509.1933" y="-1252.8" font-family="Times,serif" font-size="14.00" fill="#000000">old_2bit</text>
</g>
<!-- p24 -->
<g id="node27" class="node">
<title>p24</title>
<ellipse fill="none" stroke="#000000" cx="342.8588" cy="-505" rx="42.0524" ry="18"/>
<text text-anchor="middle" x="342.8588" y="-500.8" font-family="Times,serif" font-size="14.00" fill="#000000">chainNet</text>
</g>
<!-- p23&#45;&gt;p24 -->
<g id="edge32" class="edge">
<title>p23&#45;&gt;p24</title>
<path fill="none" stroke="#000000" d="M304.6492,-1281.7836C305.2083,-1267.3366 305.8588,-1246.6304 305.8588,-1228.5 305.8588,-1228.5 305.8588,-1228.5 305.8588,-591 305.8588,-569.8041 315.4598,-547.8866 324.8804,-531.4828"/>
<polygon fill="#000000" stroke="#000000" points="328.1314,-532.8724 330.3323,-522.5087 322.1489,-529.2379 328.1314,-532.8724"/>
<text text-anchor="middle" x="338.1278" y="-902.8" font-family="Times,serif" font-size="14.00" fill="#000000">chromInfos</text>
</g>
<!-- p11 -->
<g id="node14" class="node">
<title>p11</title>
<ellipse fill="none" stroke="#000000" cx="630.8588" cy="-1386" rx="81.1681" ry="18"/>
<text text-anchor="middle" x="630.8588" y="-1381.8" font-family="Times,serif" font-size="14.00" fill="#000000">evenSmallerChunks</text>
</g>
<!-- p7&#45;&gt;p11 -->
<g id="edge14" class="edge">
<title>p7&#45;&gt;p11</title>
<path fill="none" stroke="#000000" d="M630.8588,-1453.7505C630.8588,-1446.2927 630.8588,-1429.2775 630.8588,-1414.1657"/>
<polygon fill="#000000" stroke="#000000" points="634.3589,-1414.1487 630.8588,-1404.1487 627.3589,-1414.1487 634.3589,-1414.1487"/>
<text text-anchor="middle" x="665.4657" y="-1424.8" font-family="Times,serif" font-size="14.00" fill="#000000">fastaChunks</text>
</g>
<!-- p12 -->
<g id="node19" class="node">
<title>p12</title>
<ellipse fill="none" stroke="#000000" cx="630.8588" cy="-1300" rx="3.5" ry="3.5"/>
<text text-anchor="middle" x="615.307" y="-1306.3" font-family="Times,serif" font-size="14.00" fill="#000000">map</text>
</g>
<!-- p11&#45;&gt;p12 -->
<g id="edge19" class="edge">
<title>p11&#45;&gt;p12</title>
<path fill="none" stroke="#000000" d="M630.8588,-1367.7616C630.8588,-1351.745 630.8588,-1328.7754 630.8588,-1314.123"/>
<polygon fill="#000000" stroke="#000000" points="634.3589,-1313.7714 630.8588,-1303.7714 627.3589,-1313.7715 634.3589,-1313.7714"/>
<text text-anchor="middle" x="687.6381" y="-1338.8" font-family="Times,serif" font-size="14.00" fill="#000000">subsplitFasta_liftUp</text>
</g>
<!-- p14 -->
<g id="node16" class="node">
<title>p14</title>
<ellipse fill="none" stroke="#000000" cx="530.8588" cy="-1157" rx="3.5" ry="3.5"/>
<text text-anchor="middle" x="551.4623" y="-1163.3" font-family="Times,serif" font-size="14.00" fill="#000000">combine</text>
</g>
<!-- p9&#45;&gt;p14 -->
<g id="edge16" class="edge">
<title>p9&#45;&gt;p14</title>
<path fill="none" stroke="#000000" d="M487.874,-1225.4519C490.6137,-1221.2974 495.6542,-1213.6165 499.8588,-1207 508.0654,-1194.0857 517.2834,-1179.1632 523.5185,-1169.0056"/>
<polygon fill="#000000" stroke="#000000" points="526.6887,-1170.5304 528.9245,-1160.1742 520.7184,-1166.8758 526.6887,-1170.5304"/>
<text text-anchor="middle" x="539.1933" y="-1195.8" font-family="Times,serif" font-size="14.00" fill="#000000">old_2bit_1</text>
</g>
<!-- p10 -->
<g id="node17" class="node">
<title>p10</title>
<ellipse fill="none" stroke="#000000" cx="437.8588" cy="-1157" rx="71.0272" ry="18"/>
<text text-anchor="middle" x="437.8588" y="-1152.8" font-family="Times,serif" font-size="14.00" fill="#000000">constructOocFile</text>
</g>
<!-- p9&#45;&gt;p10 -->
<g id="edge17" class="edge">
<title>p9&#45;&gt;p10</title>
<path fill="none" stroke="#000000" d="M482.3399,-1228.2639C472.7536,-1227.4085 446.1613,-1223.5738 435.1898,-1207 430.9672,-1200.6212 429.9631,-1192.7197 430.4636,-1185.096"/>
<polygon fill="#000000" stroke="#000000" points="433.9502,-1185.4394 431.9178,-1175.0414 427.0223,-1184.4373 433.9502,-1185.4394"/>
<text text-anchor="middle" x="466.1933" y="-1195.8" font-family="Times,serif" font-size="14.00" fill="#000000">old_2bit_2</text>
</g>
<!-- p15 -->
<g id="node18" class="node">
<title>p15</title>
<ellipse fill="none" stroke="#000000" cx="499.8588" cy="-1085.5" rx="3.5" ry="3.5"/>
<text text-anchor="middle" x="472.2553" y="-1091.8" font-family="Times,serif" font-size="14.00" fill="#000000">combine</text>
</g>
<!-- p14&#45;&gt;p15 -->
<g id="edge22" class="edge">
<title>p14&#45;&gt;p15</title>
<path fill="none" stroke="#000000" d="M529.3636,-1153.5514C525.0791,-1143.6695 512.599,-1114.8846 505.3153,-1098.0852"/>
<polygon fill="#000000" stroke="#000000" points="508.4566,-1096.5317 501.2675,-1088.7492 502.0343,-1099.3162 508.4566,-1096.5317"/>
</g>
<!-- p10&#45;&gt;p15 -->
<g id="edge18" class="edge">
<title>p10&#45;&gt;p15</title>
<path fill="none" stroke="#000000" d="M453.1846,-1139.3258C465.063,-1125.6274 481.108,-1107.1239 490.9562,-1095.7666"/>
<polygon fill="#000000" stroke="#000000" points="493.6368,-1098.0178 497.5438,-1088.1697 488.3481,-1093.4319 493.6368,-1098.0178"/>
<text text-anchor="middle" x="489.9657" y="-1109.8" font-family="Times,serif" font-size="14.00" fill="#000000">ooc</text>
</g>
<!-- p16 -->
<g id="node21" class="node">
<title>p16</title>
<ellipse fill="none" stroke="#000000" cx="499.8588" cy="-1014" rx="45.4441" ry="18"/>
<text text-anchor="middle" x="499.8588" y="-1009.8" font-family="Times,serif" font-size="14.00" fill="#000000">blat_align</text>
</g>
<!-- p15&#45;&gt;p16 -->
<g id="edge23" class="edge">
<title>p15&#45;&gt;p16</title>
<path fill="none" stroke="#000000" d="M499.8588,-1081.6558C499.8588,-1074.2085 499.8588,-1057.2171 499.8588,-1042.1264"/>
<polygon fill="#000000" stroke="#000000" points="503.3589,-1042.1233 499.8588,-1032.1233 496.3589,-1042.1234 503.3589,-1042.1233"/>
<text text-anchor="middle" x="526.6933" y="-1052.8" font-family="Times,serif" font-size="14.00" fill="#000000">blatCmds</text>
</g>
<!-- p13 -->
<g id="node20" class="node">
<title>p13</title>
<ellipse fill="none" stroke="#000000" cx="630.8588" cy="-1228.5" rx="3.5" ry="3.5"/>
<text text-anchor="middle" x="600.9208" y="-1234.8" font-family="Times,serif" font-size="14.00" fill="#000000">transpose</text>
</g>
<!-- p12&#45;&gt;p13 -->
<g id="edge20" class="edge">
<title>p12&#45;&gt;p13</title>
<path fill="none" stroke="#000000" d="M630.8588,-1296.1558C630.8588,-1286.1704 630.8588,-1259.0273 630.8588,-1242.3131"/>
<polygon fill="#000000" stroke="#000000" points="634.3589,-1242.0213 630.8588,-1232.0213 627.3589,-1242.0213 634.3589,-1242.0213"/>
</g>
<!-- p13&#45;&gt;p14 -->
<g id="edge21" class="edge">
<title>p13&#45;&gt;p14</title>
<path fill="none" stroke="#000000" d="M627.9738,-1226.4373C615.4216,-1217.4624 565.1705,-1181.5328 542.299,-1165.1797"/>
<polygon fill="#000000" stroke="#000000" points="544.1212,-1162.18 533.9509,-1159.2109 540.0498,-1167.8742 544.1212,-1162.18"/>
<text text-anchor="middle" x="644.7519" y="-1195.8" font-family="Times,serif" font-size="14.00" fill="#000000">subFastaChunks</text>
</g>
<!-- p17 -->
<g id="node22" class="node">
<title>p17</title>
<ellipse fill="none" stroke="#000000" cx="532.8588" cy="-939" rx="3.5" ry="3.5"/>
<text text-anchor="middle" x="499.8139" y="-945.3" font-family="Times,serif" font-size="14.00" fill="#000000">collectFile</text>
</g>
<!-- p16&#45;&gt;p17 -->
<g id="edge24" class="edge">
<title>p16&#45;&gt;p17</title>
<path fill="none" stroke="#000000" d="M496.476,-995.9847C495.4848,-986.0512 495.7499,-973.7859 500.6381,-964 504.8045,-955.6589 513.2105,-949.2839 520.3918,-945.0594"/>
<polygon fill="#000000" stroke="#000000" points="522.1058,-948.1138 529.4006,-940.4303 518.9064,-941.8877 522.1058,-948.1138"/>
<text text-anchor="middle" x="542.4691" y="-966.8" font-family="Times,serif" font-size="14.00" fill="#000000">axtChainCmds</text>
</g>
<!-- p17&#45;&gt;p18 -->
<g id="edge25" class="edge">
<title>p17&#45;&gt;p18</title>
<path fill="none" stroke="#000000" d="M534.9213,-935.7773C539.9334,-927.946 553.1482,-907.2978 564.1244,-890.1475"/>
<polygon fill="#000000" stroke="#000000" points="567.1623,-891.8936 569.6049,-881.5842 561.2664,-888.1202 567.1623,-891.8936"/>
</g>
<!-- p20 -->
<g id="node24" class="node">
<title>p20</title>
<ellipse fill="none" stroke="#000000" cx="482.8588" cy="-734" rx="52.3654" ry="18"/>
<text text-anchor="middle" x="482.8588" y="-729.8" font-family="Times,serif" font-size="14.00" fill="#000000">chainMerge</text>
</g>
<!-- p19&#45;&gt;p20 -->
<g id="edge27" class="edge">
<title>p19&#45;&gt;p20</title>
<path fill="none" stroke="#000000" d="M501.6676,-789.0158C499.8004,-783.5543 496.0156,-772.4836 492.3274,-761.6956"/>
<polygon fill="#000000" stroke="#000000" points="495.572,-760.3668 489.0252,-752.0368 488.9484,-762.6313 495.572,-760.3668"/>
</g>
<!-- p21 -->
<g id="node25" class="node">
<title>p21</title>
<ellipse fill="none" stroke="#000000" cx="458.8588" cy="-662.5" rx="3.5" ry="3.5"/>
<text text-anchor="middle" x="425.8139" y="-668.8" font-family="Times,serif" font-size="14.00" fill="#000000">collectFile</text>
</g>
<!-- p20&#45;&gt;p21 -->
<g id="edge28" class="edge">
<title>p20&#45;&gt;p21</title>
<path fill="none" stroke="#000000" d="M476.8026,-715.9575C472.5564,-703.3075 466.9819,-686.7 463.1802,-675.3741"/>
<polygon fill="#000000" stroke="#000000" points="466.4905,-674.237 459.9902,-665.8706 459.8543,-676.4645 466.4905,-674.237"/>
<text text-anchor="middle" x="522.4496" y="-686.8" font-family="Times,serif" font-size="14.00" fill="#000000">sortMergedChains</text>
</g>
<!-- p22 -->
<g id="node26" class="node">
<title>p22</title>
<ellipse fill="none" stroke="#000000" cx="455.8588" cy="-591" rx="43.9992" ry="18"/>
<text text-anchor="middle" x="455.8588" y="-586.8" font-family="Times,serif" font-size="14.00" fill="#000000">chainSort</text>
</g>
<!-- p21&#45;&gt;p22 -->
<g id="edge29" class="edge">
<title>p21&#45;&gt;p22</title>
<path fill="none" stroke="#000000" d="M458.6975,-658.6558C458.385,-651.2085 457.6721,-634.2171 457.0389,-619.1264"/>
<polygon fill="#000000" stroke="#000000" points="460.5354,-618.9678 456.6192,-609.1233 453.5416,-619.2613 460.5354,-618.9678"/>
</g>
<!-- p22&#45;&gt;p24 -->
<g id="edge30" class="edge">
<title>p22&#45;&gt;p24</title>
<path fill="none" stroke="#000000" d="M415.942,-583.2628C387.4673,-576.8478 352.7147,-566.8756 343.8725,-555 339.3095,-548.8717 337.7638,-541.0484 337.7002,-533.4196"/>
<polygon fill="#000000" stroke="#000000" points="341.2007,-533.5292 338.3879,-523.3146 334.2169,-533.0538 341.2007,-533.5292"/>
<text text-anchor="middle" x="393.852" y="-543.8" font-family="Times,serif" font-size="14.00" fill="#000000">allSortedChain_1</text>
</g>
<!-- p25 -->
<g id="node28" class="node">
<title>p25</title>
<ellipse fill="none" stroke="#000000" cx="351.8588" cy="-419" rx="83.0718" ry="18"/>
<text text-anchor="middle" x="351.8588" y="-414.8" font-family="Times,serif" font-size="14.00" fill="#000000">produceLiftOverFile</text>
</g>
<!-- p22&#45;&gt;p25 -->
<g id="edge31" class="edge">
<title>p22&#45;&gt;p25</title>
<path fill="none" stroke="#000000" d="M452.0012,-573.0409C449.6304,-563.349 446.2098,-551.2963 441.8588,-541 424.649,-500.2742 419.7386,-489.3145 391.8588,-455 388.6277,-451.0232 384.9452,-447.0981 381.153,-443.385"/>
<polygon fill="#000000" stroke="#000000" points="383.5174,-440.8042 373.815,-436.5481 378.7456,-445.9258 383.5174,-440.8042"/>
<text text-anchor="middle" x="483.852" y="-500.8" font-family="Times,serif" font-size="14.00" fill="#000000">allSortedChain_2</text>
</g>
<!-- p24&#45;&gt;p25 -->
<g id="edge33" class="edge">
<title>p24&#45;&gt;p25</title>
<path fill="none" stroke="#000000" d="M344.7675,-486.7616C345.9607,-475.3597 347.5227,-460.4342 348.8769,-447.494"/>
<polygon fill="#000000" stroke="#000000" points="352.3929,-447.5221 349.9529,-437.2121 345.431,-446.7935 352.3929,-447.5221"/>
<text text-anchor="middle" x="368.3002" y="-457.8" font-family="Times,serif" font-size="14.00" fill="#000000">netFile</text>
</g>
<!-- p28 -->
<g id="node29" class="node">
<title>p28</title>
<ellipse fill="none" stroke="#000000" cx="348.8588" cy="-347.5" rx="3.5" ry="3.5"/>
<text text-anchor="middle" x="321.2553" y="-353.8" font-family="Times,serif" font-size="14.00" fill="#000000">combine</text>
</g>
<!-- p25&#45;&gt;p28 -->
<g id="edge34" class="edge">
<title>p25&#45;&gt;p28</title>
<path fill="none" stroke="#000000" d="M351.1018,-400.9575C350.5872,-388.694 349.9166,-372.7112 349.4431,-361.4269"/>
<polygon fill="#000000" stroke="#000000" points="352.9274,-360.9761 349.0112,-351.1316 345.9335,-361.2696 352.9274,-360.9761"/>
<text text-anchor="middle" x="390.9071" y="-371.8" font-family="Times,serif" font-size="14.00" fill="#000000">liftOverFile_2</text>
</g>
<!-- p29 -->
<g id="node31" class="node">
<title>p29</title>
<ellipse fill="none" stroke="#000000" cx="348.8588" cy="-276" rx="56.0441" ry="18"/>
<text text-anchor="middle" x="348.8588" y="-271.8" font-family="Times,serif" font-size="14.00" fill="#000000">ucsc_liftover</text>
</g>
<!-- p28&#45;&gt;p29 -->
<g id="edge37" class="edge">
<title>p28&#45;&gt;p29</title>
<path fill="none" stroke="#000000" d="M348.8588,-343.6558C348.8588,-336.2085 348.8588,-319.2171 348.8588,-304.1264"/>
<polygon fill="#000000" stroke="#000000" points="352.3589,-304.1233 348.8588,-294.1233 345.3589,-304.1234 352.3589,-304.1233"/>
<text text-anchor="middle" x="385.8002" y="-314.8" font-family="Times,serif" font-size="14.00" fill="#000000">liftoverCmds</text>
</g>
<!-- p27&#45;&gt;p28 -->
<g id="edge36" class="edge">
<title>p27&#45;&gt;p28</title>
<path fill="none" stroke="#000000" d="M212.7008,-401.9782C226.267,-391.1291 245.097,-377.5523 263.6977,-369 287.5556,-358.0305 317.8505,-352.0903 335.1272,-349.3768"/>
<polygon fill="#000000" stroke="#000000" points="335.7251,-352.827 345.1283,-347.9454 334.7333,-345.8976 335.7251,-352.827"/>
<text text-anchor="middle" x="304.9394" y="-371.8" font-family="Times,serif" font-size="14.00" fill="#000000">normalizedGff</text>
</g>
<!-- p30 -->
<g id="node32" class="node">
<title>p30</title>
<ellipse fill="none" stroke="#000000" cx="279.8588" cy="-190" rx="97.0517" ry="18"/>
<text text-anchor="middle" x="279.8588" y="-185.8" font-family="Times,serif" font-size="14.00" fill="#000000">rescue_unlifted_features</text>
</g>
<!-- p29&#45;&gt;p30 -->
<g id="edge38" class="edge">
<title>p29&#45;&gt;p30</title>
<path fill="none" stroke="#000000" d="M294.7276,-270.7806C233.1697,-264.2879 139.762,-252.5211 129.1254,-240 125.097,-235.2579 125.2704,-230.8841 129.1254,-226 137.4391,-215.4668 162.1592,-207.6764 189.238,-202.0905"/>
<polygon fill="#000000" stroke="#000000" points="190.1489,-205.4789 199.2951,-200.1313 188.8104,-198.6081 190.1489,-205.4789"/>
<text text-anchor="middle" x="161.2255" y="-228.8" font-family="Times,serif" font-size="14.00" fill="#000000">gffOriginal</text>
</g>
<!-- p29&#45;&gt;p30 -->
<g id="edge40" class="edge">
<title>p29&#45;&gt;p30</title>
<path fill="none" stroke="#000000" d="M297.3252,-268.6882C264.1342,-262.8034 225.3459,-253.3094 215.1459,-240 206.7154,-228.9996 214.1238,-219.1183 226.5175,-211.1022"/>
<polygon fill="#000000" stroke="#000000" points="228.3144,-214.1066 235.2655,-206.1108 224.8453,-208.0267 228.3144,-214.1066"/>
<text text-anchor="middle" x="271.7152" y="-228.8" font-family="Times,serif" font-size="14.00" fill="#000000">ucsc_lifted_gff_ch2</text>
</g>
<!-- p29&#45;&gt;p30 -->
<g id="edge42" class="edge">
<title>p29&#45;&gt;p30</title>
<path fill="none" stroke="#000000" d="M343.3114,-257.6839C339.6849,-247.6563 334.2401,-235.3971 326.8588,-226 323.4462,-221.6555 319.3947,-217.5483 315.123,-213.7703"/>
<polygon fill="#000000" stroke="#000000" points="317.2388,-210.9791 307.2866,-207.3453 312.8006,-216.3922 317.2388,-210.9791"/>
<text text-anchor="middle" x="390.1635" y="-228.8" font-family="Times,serif" font-size="14.00" fill="#000000">unmapped_gff_ch2</text>
</g>
<!-- p31 -->
<g id="node33" class="node">
<title>p31</title>
<ellipse fill="none" stroke="#000000" cx="403.8588" cy="-104" rx="37.8999" ry="18"/>
<text text-anchor="middle" x="403.8588" y="-99.8" font-family="Times,serif" font-size="14.00" fill="#000000">sort_gff</text>
</g>
<!-- p29&#45;&gt;p31 -->
<g id="edge39" class="edge">
<title>p29&#45;&gt;p31</title>
<path fill="none" stroke="#000000" d="M394.0391,-265.1689C417.2634,-258.5913 442.0949,-249.6239 448.8588,-240 472.938,-205.7395 445.8746,-157.7125 424.5277,-128.8497"/>
<polygon fill="#000000" stroke="#000000" points="427.2902,-126.7004 418.4279,-120.8942 421.7351,-130.9597 427.2902,-126.7004"/>
<text text-anchor="middle" x="501.1083" y="-185.8" font-family="Times,serif" font-size="14.00" fill="#000000">ucsc_lifted_gff</text>
</g>
<!-- p29&#45;&gt;p31 -->
<g id="edge41" class="edge">
<title>p29&#45;&gt;p31</title>
<path fill="none" stroke="#000000" d="M396.8956,-266.3807C449.8199,-254.666 529.7426,-233.2812 546.8588,-208 576.8505,-163.7013 499.7428,-131.5202 447.4504,-115.4871"/>
<polygon fill="#000000" stroke="#000000" points="448.2669,-112.0786 437.6844,-112.5894 446.2757,-118.7894 448.2669,-112.0786"/>
<text text-anchor="middle" x="594.5565" y="-185.8" font-family="Times,serif" font-size="14.00" fill="#000000">unmapped_gff</text>
</g>
<!-- p30&#45;&gt;p31 -->
<g id="edge43" class="edge">
<title>p30&#45;&gt;p31</title>
<path fill="none" stroke="#000000" d="M304.952,-172.5966C324.8555,-158.7926 352.7373,-139.4552 373.8264,-124.8289"/>
<polygon fill="#000000" stroke="#000000" points="375.8952,-127.6535 382.1177,-119.0785 371.9059,-121.9015 375.8952,-127.6535"/>
<text text-anchor="middle" x="380.829" y="-142.8" font-family="Times,serif" font-size="14.00" fill="#000000">rescuedGff</text>
</g>
<!-- p31&#45;&gt;p32 -->
<g id="edge44" class="edge">
<title>p31&#45;&gt;p32</title>
<path fill="none" stroke="#000000" d="M371.3832,-94.4679C320.9965,-79.6786 223.5152,-51.0664 163.1323,-33.3431"/>
<polygon fill="#000000" stroke="#000000" points="163.9882,-29.9467 153.4072,-30.4886 162.0167,-36.6634 163.9882,-29.9467"/>
<text text-anchor="middle" x="299.8427" y="-56.8" font-family="Times,serif" font-size="14.00" fill="#000000">final_gff</text>
</g>
</g>
</svg>
