<?xml version="1.0" encoding="UTF-8" standalone="no"?>
<!DOCTYPE svg PUBLIC "-//W3C//DTD SVG 1.1//EN"
 "http://www.w3.org/Graphics/SVG/1.1/DTD/svg11.dtd">
<!-- Generated by graphviz version 2.40.1 (20161225.0304)
 -->
<!-- Title: flowchart Pages: 1 -->
<svg width="905pt" height="1597pt"
 viewBox="0.00 0.00 904.64 1597.40" xmlns="http://www.w3.org/2000/svg" xmlns:xlink="http://www.w3.org/1999/xlink">
<g id="graph0" class="graph" transform="scale(1 1) rotate(0) translate(4 1593.4)">
<title>flowchart</title>
<polygon fill="#ffffff" stroke="transparent" points="-4,4 -4,-1593.4 900.6449,-1593.4 900.6449,4 -4,4"/>
<!-- p0 -->
<g id="node1" class="node">
<title>p0</title>
<ellipse fill="#000000" stroke="#000000" cx="361.8588" cy="-1457.6" rx="3.6" ry="3.6"/>
<text text-anchor="middle" x="307.1294" y="-1464" font-family="Times,serif" font-size="14.00" fill="#000000">Channel.fromPath</text>
</g>
<!-- p5 -->
<g id="node2" class="node">
<title>p5</title>
<ellipse fill="none" stroke="#000000" cx="361.8588" cy="-1386" rx="3.5" ry="3.5"/>
<text text-anchor="middle" x="347.4691" y="-1392.3" font-family="Times,serif" font-size="14.00" fill="#000000">into</text>
</g>
<!-- p0&#45;&gt;p5 -->
<g id="edge1" class="edge">
<title>p0&#45;&gt;p5</title>
<path fill="none" stroke="#000000" d="M361.8588,-1453.7505C361.8588,-1443.751 361.8588,-1416.57 361.8588,-1399.8324"/>
<polygon fill="#000000" stroke="#000000" points="365.3589,-1399.5262 361.8588,-1389.5262 358.3589,-1399.5263 365.3589,-1399.5262"/>
<text text-anchor="middle" x="394.5175" y="-1424.8" font-family="Times,serif" font-size="14.00" fill="#000000">oldGenome</text>
</g>
<!-- p26 -->
<g id="node8" class="node">
<title>p26</title>
<ellipse fill="none" stroke="#000000" cx="187.8588" cy="-505" rx="3.5" ry="3.5"/>
<text text-anchor="middle" x="160.2553" y="-511.3" font-family="Times,serif" font-size="14.00" fill="#000000">combine</text>
</g>
<!-- p5&#45;&gt;p26 -->
<g id="edge9" class="edge">
<title>p5&#45;&gt;p26</title>
<path fill="none" stroke="#000000" d="M358.057,-1385.8822C333.199,-1384.8946 194.8588,-1375.9851 194.8588,-1300 194.8588,-1300 194.8588,-1300 194.8588,-591 194.8588,-565.4545 191.7526,-535.7811 189.6785,-518.8148"/>
<polygon fill="#000000" stroke="#000000" points="193.1112,-518.0672 188.3622,-508.5963 186.1686,-518.9616 193.1112,-518.0672"/>
<text text-anchor="middle" x="234.5175" y="-934.8" font-family="Times,serif" font-size="14.00" fill="#000000">oldGenome_4</text>
</g>
<!-- p8 -->
<g id="node10" class="node">
<title>p8</title>
<ellipse fill="none" stroke="#000000" cx="524.8588" cy="-1300" rx="83.771" ry="18"/>
<text text-anchor="middle" x="524.8588" y="-1295.8" font-family="Times,serif" font-size="14.00" fill="#000000">convertFAto2bit_old</text>
</g>
<!-- p5&#45;&gt;p8 -->
<g id="edge7" class="edge">
<title>p5&#45;&gt;p8</title>
<path fill="none" stroke="#000000" d="M364.9694,-1384.3588C379.485,-1376.7003 441.6415,-1343.906 484.0411,-1321.5357"/>
<polygon fill="#000000" stroke="#000000" points="485.8174,-1324.5558 493.0287,-1316.7938 482.5509,-1318.3647 485.8174,-1324.5558"/>
<text text-anchor="middle" x="493.5175" y="-1338.8" font-family="Times,serif" font-size="14.00" fill="#000000">oldGenome_1</text>
</g>
<!-- p18 -->
<g id="node11" class="node">
<title>p18</title>
<ellipse fill="none" stroke="#000000" cx="545.8588" cy="-864" rx="42.0697" ry="18"/>
<text text-anchor="middle" x="545.8588" y="-859.8" font-family="Times,serif" font-size="14.00" fill="#000000">axtChain</text>
</g>
<!-- p5&#45;&gt;p18 -->
<g id="edge8" class="edge">
<title>p5&#45;&gt;p18</title>
<path fill="none" stroke="#000000" d="M365.0815,-1383.798C372.2704,-1378.7148 389.7037,-1365.4106 398.8588,-1350 410.6452,-1330.1601 412.8588,-1323.0769 412.8588,-1300 412.8588,-1300 412.8588,-1300 412.8588,-939 412.8588,-899.4572 458.0167,-880.5322 495.706,-871.6233"/>
<polygon fill="#000000" stroke="#000000" points="496.5687,-875.0175 505.5935,-869.4673 495.0774,-868.1782 496.5687,-875.0175"/>
<text text-anchor="middle" x="452.5175" y="-1109.8" font-family="Times,serif" font-size="14.00" fill="#000000">oldGenome_3</text>
</g>
<!-- p23 -->
<g id="node12" class="node">
<title>p23</title>
<ellipse fill="none" stroke="#000000" cx="303.8588" cy="-1300" rx="80.649" ry="18"/>
<text text-anchor="middle" x="303.8588" y="-1295.8" font-family="Times,serif" font-size="14.00" fill="#000000">calculateChromInfo</text>
</g>
<!-- p5&#45;&gt;p23 -->
<g id="edge10" class="edge">
<title>p5&#45;&gt;p23</title>
<path fill="none" stroke="#000000" d="M358.6748,-1384.1781C350.8269,-1379.5253 330.4056,-1366.4059 319.5414,-1350 315.1903,-1343.4294 311.9881,-1335.5804 309.6556,-1328.0706"/>
<polygon fill="#000000" stroke="#000000" points="312.974,-1326.9337 306.9877,-1318.1922 306.2161,-1328.7589 312.974,-1326.9337"/>
<text text-anchor="middle" x="359.5175" y="-1338.8" font-family="Times,serif" font-size="14.00" fill="#000000">oldGenome_2</text>
</g>
<!-- p1 -->
<g id="node3" class="node">
<title>p1</title>
<ellipse fill="#000000" stroke="#000000" cx="636.8588" cy="-1571.8" rx="3.6" ry="3.6"/>
<text text-anchor="middle" x="582.1294" y="-1578.2" font-family="Times,serif" font-size="14.00" fill="#000000">Channel.fromPath</text>
</g>
<!-- p6 -->
<g id="node4" class="node">
<title>p6</title>
<ellipse fill="none" stroke="#000000" cx="636.8588" cy="-1514.7" rx="3.5" ry="3.5"/>
<text text-anchor="middle" x="622.4691" y="-1521" font-family="Times,serif" font-size="14.00" fill="#000000">into</text>
</g>
<!-- p1&#45;&gt;p6 -->
<g id="edge2" class="edge">
<title>p1&#45;&gt;p6</title>
<path fill="none" stroke="#000000" d="M636.8588,-1568.0535C636.8588,-1560.1566 636.8588,-1541.4599 636.8588,-1528.4423"/>
<polygon fill="#000000" stroke="#000000" points="640.3589,-1528.2395 636.8588,-1518.2395 633.3589,-1528.2396 640.3589,-1528.2395"/>
<text text-anchor="middle" x="672.2348" y="-1539" font-family="Times,serif" font-size="14.00" fill="#000000">newGenome</text>
</g>
<!-- p6&#45;&gt;p18 -->
<g id="edge11" class="edge">
<title>p6&#45;&gt;p18</title>
<path fill="none" stroke="#000000" d="M636.8588,-1511.0925C636.8588,-1502.0746 636.8588,-1477.8229 636.8588,-1457.6 636.8588,-1457.6 636.8588,-1457.6 636.8588,-1343 636.8588,-1300.0818 633.2877,-1286.5912 610.8588,-1250 596.1054,-1225.9309 579.5705,-1230.6191 564.1068,-1207 551.2306,-1187.3329 546.8588,-1180.5073 546.8588,-1157 546.8588,-1157 546.8588,-1157 546.8588,-939 546.8588,-923.5384 546.6437,-906.2855 546.413,-892.2289"/>
<polygon fill="#000000" stroke="#000000" points="549.9118,-892.1225 546.2368,-882.1854 542.9128,-892.2453 549.9118,-892.1225"/>
<text text-anchor="middle" x="607.2348" y="-1195.8" font-family="Times,serif" font-size="14.00" fill="#000000">newGenome_3</text>
</g>
<!-- p6&#45;&gt;p23 -->
<g id="edge12" class="edge">
<title>p6&#45;&gt;p23</title>
<path fill="none" stroke="#000000" d="M633.3052,-1514.5531C598.48,-1513.0307 318.4613,-1498.8861 273.1068,-1436 249.7244,-1403.5792 269.3019,-1356.398 286.1468,-1326.9876"/>
<polygon fill="#000000" stroke="#000000" points="289.3308,-1328.4828 291.4619,-1318.1045 283.324,-1324.8886 289.3308,-1328.4828"/>
<text text-anchor="middle" x="316.2348" y="-1424.8" font-family="Times,serif" font-size="14.00" fill="#000000">newGenome_1</text>
</g>
<!-- p7 -->
<g id="node13" class="node">
<title>p7</title>
<ellipse fill="none" stroke="#000000" cx="701.8588" cy="-1457.6" rx="3.5" ry="3.5"/>
<text text-anchor="middle" x="671.5243" y="-1463.9" font-family="Times,serif" font-size="14.00" fill="#000000">splitFasta</text>
</g>
<!-- p6&#45;&gt;p7 -->
<g id="edge13" class="edge">
<title>p6&#45;&gt;p7</title>
<path fill="none" stroke="#000000" d="M639.6518,-1512.2465C648.5059,-1504.4684 676.2639,-1480.0842 691.5347,-1466.6694"/>
<polygon fill="#000000" stroke="#000000" points="693.9456,-1469.2101 699.1486,-1459.9808 689.3258,-1463.9511 693.9456,-1469.2101"/>
<text text-anchor="middle" x="720.2348" y="-1482" font-family="Times,serif" font-size="14.00" fill="#000000">newGenome_2</text>
</g>
<!-- p2 -->
<g id="node5" class="node">
<title>p2</title>
<ellipse fill="#000000" stroke="#000000" cx="105.8588" cy="-734" rx="3.6" ry="3.6"/>
<text text-anchor="middle" x="51.1294" y="-740.4" font-family="Times,serif" font-size="14.00" fill="#000000">Channel.fromPath</text>
</g>
<!-- p3 -->
<g id="node6" class="node">
<title>p3</title>
<ellipse fill="none" stroke="#000000" cx="105.8588" cy="-662.5" rx="3.5" ry="3.5"/>
<text text-anchor="middle" x="84.8622" y="-668.8" font-family="Times,serif" font-size="14.00" fill="#000000">flatten</text>
</g>
<!-- p2&#45;&gt;p3 -->
<g id="edge3" class="edge">
<title>p2&#45;&gt;p3</title>
<path fill="none" stroke="#000000" d="M105.8588,-730.1558C105.8588,-720.1704 105.8588,-693.0273 105.8588,-676.3131"/>
<polygon fill="#000000" stroke="#000000" points="109.3589,-676.0213 105.8588,-666.0213 102.3589,-676.0213 109.3589,-676.0213"/>
</g>
<!-- p4 -->
<g id="node7" class="node">
<title>p4</title>
<ellipse fill="none" stroke="#000000" cx="105.8588" cy="-591" rx="3.5" ry="3.5"/>
<text text-anchor="middle" x="91.4691" y="-597.3" font-family="Times,serif" font-size="14.00" fill="#000000">into</text>
</g>
<!-- p3&#45;&gt;p4 -->
<g id="edge4" class="edge">
<title>p3&#45;&gt;p4</title>
<path fill="none" stroke="#000000" d="M105.8588,-658.6558C105.8588,-648.6704 105.8588,-621.5273 105.8588,-604.8131"/>
<polygon fill="#000000" stroke="#000000" points="109.3589,-604.5213 105.8588,-594.5213 102.3589,-604.5213 109.3589,-604.5213"/>
<text text-anchor="middle" x="137.6186" y="-629.8" font-family="Times,serif" font-size="14.00" fill="#000000">gffFiles_ch</text>
</g>
<!-- p4&#45;&gt;p26 -->
<g id="edge5" class="edge">
<title>p4&#45;&gt;p26</title>
<path fill="none" stroke="#000000" d="M106.7289,-587.4527C109.0329,-578.6699 116.0225,-555.571 129.0014,-541 141.9416,-526.4724 162.1542,-515.8877 175.2021,-510.0907"/>
<polygon fill="#000000" stroke="#000000" points="176.5654,-513.3144 184.4612,-506.2499 173.8833,-506.8486 176.5654,-513.3144"/>
<text text-anchor="middle" x="155.7875" y="-543.8" font-family="Times,serif" font-size="14.00" fill="#000000">gffFile_1</text>
</g>
<!-- p32 -->
<g id="node9" class="node">
<title>p32</title>
<ellipse fill="none" stroke="#000000" cx="110.8588" cy="-18" rx="58.6378" ry="18"/>
<text text-anchor="middle" x="110.8588" y="-13.8" font-family="Times,serif" font-size="14.00" fill="#000000">compare_gffs</text>
</g>
<!-- p4&#45;&gt;p32 -->
<g id="edge6" class="edge">
<title>p4&#45;&gt;p32</title>
<path fill="none" stroke="#000000" d="M105.0677,-587.4162C102.5455,-575.6655 94.8588,-537.2117 94.8588,-505 94.8588,-505 94.8588,-505 94.8588,-104 94.8588,-84.2548 98.9858,-62.3833 103.0477,-45.6383"/>
<polygon fill="#000000" stroke="#000000" points="106.4412,-46.4951 105.531,-35.9394 99.6599,-44.7587 106.4412,-46.4951"/>
<text text-anchor="middle" x="120.7875" y="-314.8" font-family="Times,serif" font-size="14.00" fill="#000000">gffFile_2</text>
</g>
<!-- p27 -->
<g id="node30" class="node">
<title>p27</title>
<ellipse fill="none" stroke="#000000" cx="187.8588" cy="-419" rx="57.6688" ry="18"/>
<text text-anchor="middle" x="187.8588" y="-414.8" font-family="Times,serif" font-size="14.00" fill="#000000">normalizeGff</text>
</g>
<!-- p26&#45;&gt;p27 -->
<g id="edge35" class="edge">
<title>p26&#45;&gt;p27</title>
<path fill="none" stroke="#000000" d="M187.8588,-501.3047C187.8588,-492.0934 187.8588,-467.4185 187.8588,-447.4709"/>
<polygon fill="#000000" stroke="#000000" points="191.3589,-447.291 187.8588,-437.291 184.3589,-447.291 191.3589,-447.291"/>
<text text-anchor="middle" x="232.183" y="-457.8" font-family="Times,serif" font-size="14.00" fill="#000000">normalizeCmds</text>
</g>
<!-- p9 -->
<g id="node15" class="node">
<title>p9</title>
<ellipse fill="none" stroke="#000000" cx="654.8588" cy="-1228.5" rx="3.5" ry="3.5"/>
<text text-anchor="middle" x="640.4691" y="-1234.8" font-family="Times,serif" font-size="14.00" fill="#000000">into</text>
</g>
<!-- p8&#45;&gt;p9 -->
<g id="edge15" class="edge">
<title>p8&#45;&gt;p9</title>
<path fill="none" stroke="#000000" d="M555.338,-1283.2364C583.0702,-1267.9837 622.6128,-1246.2353 642.4718,-1235.3129"/>
<polygon fill="#000000" stroke="#000000" points="644.3917,-1238.2514 651.4671,-1230.3654 641.0182,-1232.1179 644.3917,-1238.2514"/>
<text text-anchor="middle" x="636.1933" y="-1252.8" font-family="Times,serif" font-size="14.00" fill="#000000">old_2bit</text>
</g>
<!-- p19 -->
<g id="node23" class="node">
<title>p19</title>
<ellipse fill="none" stroke="#000000" cx="504.8588" cy="-792.5" rx="3.5" ry="3.5"/>
<text text-anchor="middle" x="482.7035" y="-798.8" font-family="Times,serif" font-size="14.00" fill="#000000">collect</text>
</g>
<!-- p18&#45;&gt;p19 -->
<g id="edge26" class="edge">
<title>p18&#45;&gt;p19</title>
<path fill="none" stroke="#000000" d="M535.724,-846.3258C528.2483,-833.289 518.2771,-815.9002 511.7176,-804.461"/>
<polygon fill="#000000" stroke="#000000" points="514.6775,-802.5868 506.6668,-795.6529 508.605,-806.069 514.6775,-802.5868"/>
<text text-anchor="middle" x="542.7416" y="-816.8" font-family="Times,serif" font-size="14.00" fill="#000000">chains</text>
</g>
<!-- p24 -->
<g id="node27" class="node">
<title>p24</title>
<ellipse fill="none" stroke="#000000" cx="343.8588" cy="-505" rx="42.0524" ry="18"/>
<text text-anchor="middle" x="343.8588" y="-500.8" font-family="Times,serif" font-size="14.00" fill="#000000">chainNet</text>
</g>
<!-- p23&#45;&gt;p24 -->
<g id="edge32" class="edge">
<title>p23&#45;&gt;p24</title>
<path fill="none" stroke="#000000" d="M304.6492,-1281.7836C305.2083,-1267.3366 305.8588,-1246.6304 305.8588,-1228.5 305.8588,-1228.5 305.8588,-1228.5 305.8588,-591 305.8588,-569.5147 315.9045,-547.3881 325.6657,-530.9596"/>
<polygon fill="#000000" stroke="#000000" points="328.6484,-532.7911 330.9937,-522.4591 322.7172,-529.0735 328.6484,-532.7911"/>
<text text-anchor="middle" x="338.1278" y="-902.8" font-family="Times,serif" font-size="14.00" fill="#000000">chromInfos</text>
</g>
<!-- p11 -->
<g id="node14" class="node">
<title>p11</title>
<ellipse fill="none" stroke="#000000" cx="754.8588" cy="-1386" rx="81.1681" ry="18"/>
<text text-anchor="middle" x="754.8588" y="-1381.8" font-family="Times,serif" font-size="14.00" fill="#000000">evenSmallerChunks</text>
</g>
<!-- p7&#45;&gt;p11 -->
<g id="edge14" class="edge">
<title>p7&#45;&gt;p11</title>
<path fill="none" stroke="#000000" d="M704.1361,-1454.5234C709.5353,-1447.2294 723.5553,-1428.2893 735.4902,-1412.1659"/>
<polygon fill="#000000" stroke="#000000" points="738.3482,-1414.1877 741.4847,-1404.0677 732.7219,-1410.0229 738.3482,-1414.1877"/>
<text text-anchor="middle" x="761.4657" y="-1424.8" font-family="Times,serif" font-size="14.00" fill="#000000">fastaChunks</text>
</g>
<!-- p12 -->
<g id="node19" class="node">
<title>p12</title>
<ellipse fill="none" stroke="#000000" cx="777.8588" cy="-1300" rx="3.5" ry="3.5"/>
<text text-anchor="middle" x="762.307" y="-1306.3" font-family="Times,serif" font-size="14.00" fill="#000000">map</text>
</g>
<!-- p11&#45;&gt;p12 -->
<g id="edge19" class="edge">
<title>p11&#45;&gt;p12</title>
<path fill="none" stroke="#000000" d="M759.7365,-1367.7616C764.1045,-1351.4291 770.4061,-1327.8667 774.3109,-1313.2659"/>
<polygon fill="#000000" stroke="#000000" points="777.7297,-1314.0292 776.9323,-1303.4644 770.9674,-1312.2206 777.7297,-1314.0292"/>
<text text-anchor="middle" x="824.6381" y="-1338.8" font-family="Times,serif" font-size="14.00" fill="#000000">subsplitFasta_liftUp</text>
</g>
<!-- p10 -->
<g id="node16" class="node">
<title>p10</title>
<ellipse fill="none" stroke="#000000" cx="649.8588" cy="-1157" rx="71.0272" ry="18"/>
<text text-anchor="middle" x="649.8588" y="-1152.8" font-family="Times,serif" font-size="14.00" fill="#000000">constructOocFile</text>
</g>
<!-- p9&#45;&gt;p10 -->
<g id="edge16" class="edge">
<title>p9&#45;&gt;p10</title>
<path fill="none" stroke="#000000" d="M654.59,-1224.6558C654.0692,-1217.2085 652.881,-1200.2171 651.8257,-1185.1264"/>
<polygon fill="#000000" stroke="#000000" points="655.3153,-1184.8548 651.1262,-1175.1233 648.3324,-1185.3432 655.3153,-1184.8548"/>
<text text-anchor="middle" x="684.1933" y="-1195.8" font-family="Times,serif" font-size="14.00" fill="#000000">old_2bit_2</text>
</g>
<!-- p14 -->
<g id="node17" class="node">
<title>p14</title>
<ellipse fill="none" stroke="#000000" cx="742.8588" cy="-1157" rx="3.5" ry="3.5"/>
<text text-anchor="middle" x="763.4623" y="-1163.3" font-family="Times,serif" font-size="14.00" fill="#000000">combine</text>
</g>
<!-- p9&#45;&gt;p14 -->
<g id="edge17" class="edge">
<title>p9&#45;&gt;p14</title>
<path fill="none" stroke="#000000" d="M658.3913,-1228.1819C668.6321,-1227.0886 698.7548,-1222.6409 716.8588,-1207 728.1782,-1197.2206 735.2508,-1181.2881 739.1118,-1170.0403"/>
<polygon fill="#000000" stroke="#000000" points="742.4616,-1171.0545 742.0161,-1160.4691 735.7632,-1169.0219 742.4616,-1171.0545"/>
<text text-anchor="middle" x="758.1933" y="-1195.8" font-family="Times,serif" font-size="14.00" fill="#000000">old_2bit_1</text>
</g>
<!-- p15 -->
<g id="node18" class="node">
<title>p15</title>
<ellipse fill="none" stroke="#000000" cx="649.8588" cy="-1085.5" rx="3.5" ry="3.5"/>
<text text-anchor="middle" x="622.2553" y="-1091.8" font-family="Times,serif" font-size="14.00" fill="#000000">combine</text>
</g>
<!-- p10&#45;&gt;p15 -->
<g id="edge18" class="edge">
<title>p10&#45;&gt;p15</title>
<path fill="none" stroke="#000000" d="M649.8588,-1138.9575C649.8588,-1126.694 649.8588,-1110.7112 649.8588,-1099.4269"/>
<polygon fill="#000000" stroke="#000000" points="653.3589,-1099.1316 649.8588,-1089.1316 646.3589,-1099.1317 653.3589,-1099.1316"/>
<text text-anchor="middle" x="659.9657" y="-1109.8" font-family="Times,serif" font-size="14.00" fill="#000000">ooc</text>
</g>
<!-- p14&#45;&gt;p15 -->
<g id="edge22" class="edge">
<title>p14&#45;&gt;p15</title>
<path fill="none" stroke="#000000" d="M741.1197,-1153.9446C738.8588,-1150.1462 734.6308,-1143.603 729.8588,-1139 708.7538,-1118.6423 678.9878,-1101.0533 662.3546,-1092.0044"/>
<polygon fill="#000000" stroke="#000000" points="663.6828,-1088.7479 653.2053,-1087.1752 660.4152,-1094.9384 663.6828,-1088.7479"/>
</g>
<!-- p16 -->
<g id="node21" class="node">
<title>p16</title>
<ellipse fill="none" stroke="#000000" cx="626.8588" cy="-1014" rx="45.4441" ry="18"/>
<text text-anchor="middle" x="626.8588" y="-1009.8" font-family="Times,serif" font-size="14.00" fill="#000000">blat_align</text>
</g>
<!-- p15&#45;&gt;p16 -->
<g id="edge23" class="edge">
<title>p15&#45;&gt;p16</title>
<path fill="none" stroke="#000000" d="M648.7495,-1082.0514C646.4087,-1074.7747 640.7707,-1057.2479 635.8029,-1041.8047"/>
<polygon fill="#000000" stroke="#000000" points="639.0708,-1040.5336 632.6766,-1032.0858 632.407,-1042.6772 639.0708,-1040.5336"/>
<text text-anchor="middle" x="669.6933" y="-1052.8" font-family="Times,serif" font-size="14.00" fill="#000000">blatCmds</text>
</g>
<!-- p13 -->
<g id="node20" class="node">
<title>p13</title>
<ellipse fill="none" stroke="#000000" cx="800.8588" cy="-1228.5" rx="3.5" ry="3.5"/>
<text text-anchor="middle" x="770.9208" y="-1234.8" font-family="Times,serif" font-size="14.00" fill="#000000">transpose</text>
</g>
<!-- p12&#45;&gt;p13 -->
<g id="edge20" class="edge">
<title>p12&#45;&gt;p13</title>
<path fill="none" stroke="#000000" d="M778.9681,-1296.5514C782.0875,-1286.8543 791.0622,-1258.9547 796.5032,-1242.0401"/>
<polygon fill="#000000" stroke="#000000" points="799.9759,-1242.6738 799.7064,-1232.0824 793.3122,-1240.5302 799.9759,-1242.6738"/>
</g>
<!-- p13&#45;&gt;p14 -->
<g id="edge21" class="edge">
<title>p13&#45;&gt;p14</title>
<path fill="none" stroke="#000000" d="M801.9374,-1224.8921C803.735,-1218.1393 806.6113,-1203.341 800.8588,-1193 791.3167,-1175.8465 769.8443,-1165.82 755.8728,-1160.8786"/>
<polygon fill="#000000" stroke="#000000" points="756.9169,-1157.538 746.3275,-1157.879 754.8182,-1164.2161 756.9169,-1157.538"/>
<text text-anchor="middle" x="850.7519" y="-1195.8" font-family="Times,serif" font-size="14.00" fill="#000000">subFastaChunks</text>
</g>
<!-- p17 -->
<g id="node22" class="node">
<title>p17</title>
<ellipse fill="none" stroke="#000000" cx="590.8588" cy="-939" rx="3.5" ry="3.5"/>
<text text-anchor="middle" x="557.8139" y="-945.3" font-family="Times,serif" font-size="14.00" fill="#000000">collectFile</text>
</g>
<!-- p16&#45;&gt;p17 -->
<g id="edge24" class="edge">
<title>p16&#45;&gt;p17</title>
<path fill="none" stroke="#000000" d="M618.3273,-996.226C611.7049,-982.4295 602.6922,-963.6529 596.8257,-951.4311"/>
<polygon fill="#000000" stroke="#000000" points="599.9642,-949.8812 592.4815,-942.3806 593.6535,-952.9104 599.9642,-949.8812"/>
<text text-anchor="middle" x="650.4691" y="-966.8" font-family="Times,serif" font-size="14.00" fill="#000000">axtChainCmds</text>
</g>
<!-- p17&#45;&gt;p18 -->
<g id="edge25" class="edge">
<title>p17&#45;&gt;p18</title>
<path fill="none" stroke="#000000" d="M588.9252,-935.7773C584.2695,-928.0178 572.0641,-907.6756 561.831,-890.6204"/>
<polygon fill="#000000" stroke="#000000" points="564.5555,-888.3584 556.4093,-881.5842 558.5531,-891.9599 564.5555,-888.3584"/>
</g>
<!-- p20 -->
<g id="node24" class="node">
<title>p20</title>
<ellipse fill="none" stroke="#000000" cx="483.8588" cy="-734" rx="52.3654" ry="18"/>
<text text-anchor="middle" x="483.8588" y="-729.8" font-family="Times,serif" font-size="14.00" fill="#000000">chainMerge</text>
</g>
<!-- p19&#45;&gt;p20 -->
<g id="edge27" class="edge">
<title>p19&#45;&gt;p20</title>
<path fill="none" stroke="#000000" d="M503.608,-789.0158C501.6475,-783.5543 497.6734,-772.4836 493.8008,-761.6956"/>
<polygon fill="#000000" stroke="#000000" points="497.0064,-760.2662 490.3335,-752.0368 490.4181,-762.6313 497.0064,-760.2662"/>
</g>
<!-- p21 -->
<g id="node25" class="node">
<title>p21</title>
<ellipse fill="none" stroke="#000000" cx="458.8588" cy="-662.5" rx="3.5" ry="3.5"/>
<text text-anchor="middle" x="425.8139" y="-668.8" font-family="Times,serif" font-size="14.00" fill="#000000">collectFile</text>
</g>
<!-- p20&#45;&gt;p21 -->
<g id="edge28" class="edge">
<title>p20&#45;&gt;p21</title>
<path fill="none" stroke="#000000" d="M477.5502,-715.9575C473.1271,-703.3075 467.3203,-686.7 463.3602,-675.3741"/>
<polygon fill="#000000" stroke="#000000" points="466.6418,-674.155 460.0373,-665.8706 460.0341,-676.4654 466.6418,-674.155"/>
<text text-anchor="middle" x="522.4496" y="-686.8" font-family="Times,serif" font-size="14.00" fill="#000000">sortMergedChains</text>
</g>
<!-- p22 -->
<g id="node26" class="node">
<title>p22</title>
<ellipse fill="none" stroke="#000000" cx="456.8588" cy="-591" rx="43.9992" ry="18"/>
<text text-anchor="middle" x="456.8588" y="-586.8" font-family="Times,serif" font-size="14.00" fill="#000000">chainSort</text>
</g>
<!-- p21&#45;&gt;p22 -->
<g id="edge29" class="edge">
<title>p21&#45;&gt;p22</title>
<path fill="none" stroke="#000000" d="M458.7513,-658.6558C458.5429,-651.2085 458.0677,-634.2171 457.6455,-619.1264"/>
<polygon fill="#000000" stroke="#000000" points="461.1441,-619.0215 457.3657,-609.1233 454.1468,-619.2173 461.1441,-619.0215"/>
</g>
<!-- p22&#45;&gt;p24 -->
<g id="edge30" class="edge">
<title>p22&#45;&gt;p24</title>
<path fill="none" stroke="#000000" d="M416.942,-583.2628C388.4673,-576.8478 353.7147,-566.8756 344.8725,-555 340.3095,-548.8717 338.7638,-541.0484 338.7002,-533.4196"/>
<polygon fill="#000000" stroke="#000000" points="342.2007,-533.5292 339.3879,-523.3146 335.2169,-533.0538 342.2007,-533.5292"/>
<text text-anchor="middle" x="394.852" y="-543.8" font-family="Times,serif" font-size="14.00" fill="#000000">allSortedChain_1</text>
</g>
<!-- p25 -->
<g id="node28" class="node">
<title>p25</title>
<ellipse fill="none" stroke="#000000" cx="346.8588" cy="-419" rx="83.0718" ry="18"/>
<text text-anchor="middle" x="346.8588" y="-414.8" font-family="Times,serif" font-size="14.00" fill="#000000">produceLiftOverFile</text>
</g>
<!-- p22&#45;&gt;p25 -->
<g id="edge31" class="edge">
<title>p22&#45;&gt;p25</title>
<path fill="none" stroke="#000000" d="M453.1405,-572.9806C450.8106,-563.2711 447.3845,-551.2207 442.8588,-541 424.5856,-499.7323 418.3265,-489.1847 388.8588,-455 385.4199,-451.0106 381.5268,-447.0783 377.5319,-443.3617"/>
<polygon fill="#000000" stroke="#000000" points="379.6217,-440.5369 369.817,-436.522 374.978,-445.7749 379.6217,-440.5369"/>
<text text-anchor="middle" x="483.852" y="-500.8" font-family="Times,serif" font-size="14.00" fill="#000000">allSortedChain_2</text>
</g>
<!-- p24&#45;&gt;p25 -->
<g id="edge33" class="edge">
<title>p24&#45;&gt;p25</title>
<path fill="none" stroke="#000000" d="M344.495,-486.7616C344.8928,-475.3597 345.4134,-460.4342 345.8648,-447.494"/>
<polygon fill="#000000" stroke="#000000" points="349.3726,-447.3281 346.2235,-437.2121 342.3769,-447.084 349.3726,-447.3281"/>
<text text-anchor="middle" x="365.3002" y="-457.8" font-family="Times,serif" font-size="14.00" fill="#000000">netFile</text>
</g>
<!-- p28 -->
<g id="node29" class="node">
<title>p28</title>
<ellipse fill="none" stroke="#000000" cx="293.8588" cy="-347.5" rx="3.5" ry="3.5"/>
<text text-anchor="middle" x="266.2553" y="-353.8" font-family="Times,serif" font-size="14.00" fill="#000000">combine</text>
</g>
<!-- p25&#45;&gt;p28 -->
<g id="edge34" class="edge">
<title>p25&#45;&gt;p28</title>
<path fill="none" stroke="#000000" d="M333.4847,-400.9575C323.7176,-387.7813 310.7681,-370.3116 302.3751,-358.989"/>
<polygon fill="#000000" stroke="#000000" points="304.937,-356.5676 296.1702,-350.6182 299.3135,-360.7361 304.937,-356.5676"/>
<text text-anchor="middle" x="358.9071" y="-371.8" font-family="Times,serif" font-size="14.00" fill="#000000">liftOverFile_2</text>
</g>
<!-- p29 -->
<g id="node31" class="node">
<title>p29</title>
<ellipse fill="none" stroke="#000000" cx="293.8588" cy="-276" rx="56.0441" ry="18"/>
<text text-anchor="middle" x="293.8588" y="-271.8" font-family="Times,serif" font-size="14.00" fill="#000000">ucsc_liftover</text>
</g>
<!-- p28&#45;&gt;p29 -->
<g id="edge37" class="edge">
<title>p28&#45;&gt;p29</title>
<path fill="none" stroke="#000000" d="M293.8588,-343.6558C293.8588,-336.2085 293.8588,-319.2171 293.8588,-304.1264"/>
<polygon fill="#000000" stroke="#000000" points="297.3589,-304.1233 293.8588,-294.1233 290.3589,-304.1234 297.3589,-304.1233"/>
<text text-anchor="middle" x="330.8002" y="-314.8" font-family="Times,serif" font-size="14.00" fill="#000000">liftoverCmds</text>
</g>
<!-- p27&#45;&gt;p28 -->
<g id="edge36" class="edge">
<title>p27&#45;&gt;p28</title>
<path fill="none" stroke="#000000" d="M197.6264,-401.0009C204.2616,-390.3167 213.9548,-377.282 225.6977,-369 242.1673,-357.3843 265.1758,-351.8534 279.7963,-349.3619"/>
<polygon fill="#000000" stroke="#000000" points="280.7102,-352.7666 290.11,-347.8784 279.7135,-345.8379 280.7102,-352.7666"/>
<text text-anchor="middle" x="266.9394" y="-371.8" font-family="Times,serif" font-size="14.00" fill="#000000">normalizedGff</text>
</g>
<!-- p30 -->
<g id="node32" class="node">
<title>p30</title>
<ellipse fill="none" stroke="#000000" cx="456.8588" cy="-190" rx="97.0517" ry="18"/>
<text text-anchor="middle" x="456.8588" y="-185.8" font-family="Times,serif" font-size="14.00" fill="#000000">rescue_unlifted_features</text>
</g>
<!-- p29&#45;&gt;p30 -->
<g id="edge38" class="edge">
<title>p29&#45;&gt;p30</title>
<path fill="none" stroke="#000000" d="M348.5209,-271.7181C416.9037,-265.797 526.5812,-254.2134 538.8588,-240 549.904,-227.2133 539.3561,-216.715 522.5794,-208.6971"/>
<polygon fill="#000000" stroke="#000000" points="523.8902,-205.451 513.3198,-204.7313 521.1342,-211.8857 523.8902,-205.451"/>
<text text-anchor="middle" x="575.2255" y="-228.8" font-family="Times,serif" font-size="14.00" fill="#000000">gffOriginal</text>
</g>
<!-- p29&#45;&gt;p30 -->
<g id="edge40" class="edge">
<title>p29&#45;&gt;p30</title>
<path fill="none" stroke="#000000" d="M289.2732,-257.9196C287.7515,-247.4727 287.9713,-234.7152 295.1459,-226 300.6836,-219.2732 337.209,-210.8489 374.1468,-203.8412"/>
<polygon fill="#000000" stroke="#000000" points="374.8475,-207.271 384.0373,-201.9987 373.5654,-200.3894 374.8475,-207.271"/>
<text text-anchor="middle" x="351.7152" y="-228.8" font-family="Times,serif" font-size="14.00" fill="#000000">ucsc_lifted_gff_ch2</text>
</g>
<!-- p29&#45;&gt;p30 -->
<g id="edge42" class="edge">
<title>p29&#45;&gt;p30</title>
<path fill="none" stroke="#000000" d="M341.3641,-266.2514C362.4251,-260.6063 386.8983,-252.1531 406.8588,-240 417.5638,-233.4821 427.6827,-224.2107 435.9803,-215.4187"/>
<polygon fill="#000000" stroke="#000000" points="438.6681,-217.6646 442.7723,-207.897 433.4727,-212.9733 438.6681,-217.6646"/>
<text text-anchor="middle" x="478.1635" y="-228.8" font-family="Times,serif" font-size="14.00" fill="#000000">unmapped_gff_ch2</text>
</g>
<!-- p31 -->
<g id="node33" class="node">
<title>p31</title>
<ellipse fill="none" stroke="#000000" cx="210.8588" cy="-104" rx="37.8999" ry="18"/>
<text text-anchor="middle" x="210.8588" y="-99.8" font-family="Times,serif" font-size="14.00" fill="#000000">sort_gff</text>
</g>
<!-- p29&#45;&gt;p31 -->
<g id="edge39" class="edge">
<title>p29&#45;&gt;p31</title>
<path fill="none" stroke="#000000" d="M245.8603,-266.3713C213.9134,-257.2002 174.2804,-239.8718 154.3598,-208 137.4086,-180.8792 161.9559,-148.2921 183.8056,-126.9114"/>
<polygon fill="#000000" stroke="#000000" points="186.4449,-129.2348 191.3492,-119.8435 181.6587,-124.1267 186.4449,-129.2348"/>
<text text-anchor="middle" x="197.1083" y="-185.8" font-family="Times,serif" font-size="14.00" fill="#000000">ucsc_lifted_gff</text>
</g>
<!-- p29&#45;&gt;p31 -->
<g id="edge41" class="edge">
<title>p29&#45;&gt;p31</title>
<path fill="none" stroke="#000000" d="M285.1332,-257.9181C270.4862,-227.5653 240.8848,-166.2226 223.8059,-130.8301"/>
<polygon fill="#000000" stroke="#000000" points="226.8419,-129.0682 219.3436,-121.5831 220.5375,-132.1104 226.8419,-129.0682"/>
<text text-anchor="middle" x="301.5565" y="-185.8" font-family="Times,serif" font-size="14.00" fill="#000000">unmapped_gff</text>
</g>
<!-- p30&#45;&gt;p31 -->
<g id="edge43" class="edge">
<title>p30&#45;&gt;p31</title>
<path fill="none" stroke="#000000" d="M411.1646,-174.0256C365.1772,-157.9487 294.944,-133.3956 251.0276,-118.0428"/>
<polygon fill="#000000" stroke="#000000" points="252.1317,-114.7211 241.5368,-114.7248 249.8216,-121.3289 252.1317,-114.7211"/>
<text text-anchor="middle" x="379.829" y="-142.8" font-family="Times,serif" font-size="14.00" fill="#000000">rescuedGff</text>
</g>
<!-- p31&#45;&gt;p32 -->
<g id="edge44" class="edge">
<title>p31&#45;&gt;p32</title>
<path fill="none" stroke="#000000" d="M192.5172,-88.2263C177.4959,-75.3079 155.9985,-56.8201 138.8312,-42.0562"/>
<polygon fill="#000000" stroke="#000000" points="140.6628,-39.0151 130.7987,-35.1484 136.0985,-44.3224 140.6628,-39.0151"/>
<text text-anchor="middle" x="190.8427" y="-56.8" font-family="Times,serif" font-size="14.00" fill="#000000">final_gff</text>
</g>
</g>
</svg>
